<?xml version="1.0" encoding="utf-8"?>
<!-- Generator: Adobe Illustrator 16.0.0, SVG Export Plug-In . SVG Version: 6.00 Build 0)  -->
<!DOCTYPE svg PUBLIC "-//W3C//DTD SVG 1.1//EN" "http://www.w3.org/Graphics/SVG/1.1/DTD/svg11.dtd">
<svg version="1.1" id="Layer_1" xmlns="http://www.w3.org/2000/svg" xmlns:xlink="http://www.w3.org/1999/xlink" x="0px" y="0px"
	 width="180.877px" height="231.123px" viewBox="0 0 180.877 231.123" enable-background="new 0 0 180.877 231.123"
	 xml:space="preserve">
<g>
	<g>
		<path fill="#FFFFFF" stroke="#FFFFFF" stroke-width="2" stroke-miterlimit="10" d="M17.653,31.469l35.798,15.674l23.553,38.253
			c1.31,2.127,3.852,5.289,5.647,7.029l12.67,12.248l-19.599,18.434c-1.588,1.494-1.368,2.75,0.372,3.047
			c-2.312-0.334-4.893-1.917-6.048-3.813L15.859,33.526C14.557,31.392,15.365,30.465,17.653,31.469z"/>
		<path fill="#FFFFFF" stroke="#FFFFFF" stroke-width="2" stroke-miterlimit="10" d="M74.724,59.358
			c-1.272-2.153-4.184-4.732-6.473-5.735l-14.8-6.48l-20.844-33.85c-1.308-2.128-0.422-3.279,1.971-2.562L71.2,21.718
			c2.393,0.718,5.04,3.23,5.88,5.583l25.272,70.76l-3.051,2.871L74.724,59.358z"/>
		<path fill="#FFFFFF" stroke="#FFFFFF" stroke-width="2" stroke-miterlimit="10" d="M74.724,59.358l24.577,41.572l-3.979,3.743
			l-12.67-12.248c-1.795-1.74-4.337-4.902-5.647-7.029L53.451,47.143l14.8,6.48C70.54,54.626,73.452,57.206,74.724,59.358z"/>
		<path fill="#FFFFFF" stroke="#FFFFFF" stroke-width="2" stroke-miterlimit="10" d="M111.938,122.31l-3.573-6.044
			c0.203-0.289,0.145-0.965-0.222-1.993l-5.792-16.212l15.215-14.311c1.818-1.714,5.238-3.781,7.601-4.6l37.436-12.977
			c2.36-0.818,2.964,0.067,1.337,1.966l-46.736,54.63c-1.625,1.899-4.999,3.452-7.499,3.452
			C112.207,126.22,113.21,124.459,111.938,122.31z"/>
		<path fill="#FFFFFF" stroke="#FFFFFF" stroke-width="2" stroke-miterlimit="10" d="M76.095,126.154
			c0.292,0.043,0.581,0.066,0.859,0.066C76.635,126.22,76.35,126.197,76.095,126.154z"/>
		<path fill="#FFFFFF" stroke="#FFFFFF" stroke-width="2" stroke-miterlimit="10" d="M75.723,123.107l19.599-18.434l11.082,10.72
			c1.012,0.976,1.703,1.245,1.962,0.872l3.573,6.044c1.273,2.15,0.269,3.911-2.231,3.911H76.954c-0.279,0-0.568-0.023-0.859-0.066
			C74.354,125.857,74.135,124.601,75.723,123.107z"/>
		<path fill="#FFFFFF" stroke="#FFFFFF" stroke-width="2" stroke-miterlimit="10" d="M108.365,116.265l-9.064-15.334l3.051-2.871
			l5.792,16.212C108.51,115.3,108.567,115.976,108.365,116.265z"/>
		<path fill="#FFFFFF" stroke="#FFFFFF" stroke-width="2" stroke-miterlimit="10" d="M108.365,116.265
			c-0.259,0.373-0.95,0.104-1.962-0.872l-11.082-10.72l3.979-3.743L108.365,116.265z"/>
	</g>
	<g>
		<path fill="#44AD4D" d="M17.653,31.469l35.798,15.674l23.553,38.253c1.31,2.127,3.852,5.289,5.647,7.029l12.67,12.248
			l-19.599,18.434c-1.588,1.494-1.368,2.75,0.372,3.047c-2.312-0.334-4.893-1.917-6.048-3.813L15.859,33.526
			C14.557,31.392,15.365,30.465,17.653,31.469z"/>
		<path fill="#1E76BC" d="M74.724,59.358c-1.272-2.153-4.184-4.732-6.473-5.735l-14.8-6.48l-20.844-33.85
			c-1.308-2.128-0.422-3.279,1.971-2.562L71.2,21.718c2.393,0.718,5.04,3.23,5.88,5.583l25.272,70.76l-3.051,2.871L74.724,59.358z"
			/>
		<path fill="#047046" d="M74.724,59.358l24.577,41.572l-3.979,3.743l-12.67-12.248c-1.795-1.74-4.337-4.902-5.647-7.029
			L53.451,47.143l14.8,6.48C70.54,54.626,73.452,57.206,74.724,59.358z"/>
		<path fill="#2AA9E0" d="M111.938,122.31l-3.573-6.044c0.203-0.289,0.145-0.965-0.222-1.993l-5.792-16.212l15.215-14.311
			c1.818-1.714,5.238-3.781,7.601-4.6l37.436-12.977c2.36-0.818,2.964,0.067,1.337,1.966l-46.736,54.63
			c-1.625,1.899-4.999,3.452-7.499,3.452C112.207,126.22,113.21,124.459,111.938,122.31z"/>
		<path fill="#FECA0E" d="M76.095,126.154c0.292,0.043,0.581,0.066,0.859,0.066C76.635,126.22,76.35,126.197,76.095,126.154z"/>
		<path fill="#00994B" d="M75.723,123.107l19.599-18.434l11.082,10.72c1.012,0.976,1.703,1.245,1.962,0.872l3.573,6.044
			c1.273,2.15,0.269,3.911-2.231,3.911H76.954c-0.279,0-0.568-0.023-0.859-0.066C74.354,125.857,74.135,124.601,75.723,123.107z"/>
		<path fill="#0D68B1" d="M108.365,116.265l-9.064-15.334l3.051-2.871l5.792,16.212C108.51,115.3,108.567,115.976,108.365,116.265z"
			/>
		<path fill="#016644" d="M108.365,116.265c-0.259,0.373-0.95,0.104-1.962-0.872l-11.082-10.72l3.979-3.743L108.365,116.265z"/>
	</g>
	<g>
		<path fill="#FFFFFF" d="M35.691,134.558v28.092h-3.188l-13.508-21.68c0,1.74,0.01,3.459,0.029,5.151
			c0.017,1.692,0.027,3.403,0.027,5.132v11.229h-3.241v-28.035h2.685l13.971,22.273v-10.525c0-1.901,0.006-3.841,0.019-5.816
			c0.012-1.979,0.019-3.917,0.019-5.82H35.691z"/>
		<path fill="#FFFFFF" d="M56.656,137.82H48.04c-0.592,0-1.136,0.107-1.629,0.325c-0.496,0.216-0.915,0.531-1.261,0.944
			s-0.611,0.922-0.796,1.529c-0.185,0.604-0.273,1.296-0.261,2.074v4.336h12.88v3.113h-12.88v5.65
			c0.012,0.717,0.116,1.339,0.306,1.863c0.192,0.524,0.452,0.961,0.779,1.305c0.327,0.348,0.712,0.604,1.157,0.771
			c0.446,0.165,0.934,0.251,1.464,0.251h8.691v3.184h-8.691c-0.951,0-1.84-0.148-2.668-0.451c-0.826-0.303-1.546-0.757-2.159-1.363
			c-0.611-0.604-1.099-1.365-1.463-2.279c-0.364-0.912-0.564-1.98-0.601-3.203V142.73c-0.026-1.283,0.128-2.425,0.462-3.418
			c0.335-0.994,0.811-1.836,1.437-2.521c0.624-0.686,1.38-1.208,2.27-1.567c0.889-0.357,1.877-0.537,2.964-0.537h8.616V137.82z"/>
		<path fill="#FFFFFF" d="M87.924,135.039l-5.392,27.371h-2.631l-6.134-15.178c-1,2.545-2.023,5.082-3.065,7.605
			c-1.042,2.529-2.066,5.05-3.067,7.572h-2.668l-5.131-27.443l3.055-0.557l4.077,21.421c0.878-2.284,1.789-4.573,2.732-6.864
			c0.946-2.293,1.865-4.568,2.753-6.828h2.632l5.539,13.73l4.188-21.422L87.924,135.039z"/>
		<path fill="#FFFFFF" d="M116.996,137.82h-8.618c-0.593,0-1.135,0.107-1.629,0.325c-0.494,0.216-0.915,0.531-1.26,0.944
			c-0.347,0.413-0.613,0.922-0.797,1.529c-0.186,0.604-0.271,1.296-0.259,2.074v4.336h12.877v3.113h-12.877v5.65
			c0.013,0.717,0.113,1.339,0.306,1.863c0.191,0.524,0.451,0.961,0.778,1.305c0.326,0.348,0.712,0.604,1.157,0.771
			c0.446,0.165,0.935,0.251,1.465,0.251h8.689v3.184h-8.689c-0.953,0-1.841-0.148-2.669-0.451c-0.827-0.303-1.545-0.757-2.158-1.363
			c-0.611-0.604-1.099-1.365-1.464-2.279c-0.365-0.912-0.565-1.98-0.602-3.203V142.73c-0.025-1.283,0.131-2.425,0.463-3.418
			c0.333-0.994,0.813-1.836,1.436-2.521c0.624-0.686,1.381-1.208,2.271-1.567c0.888-0.357,1.875-0.537,2.962-0.537h8.618V137.82z"/>
		<path fill="#FFFFFF" d="M121.452,163.003v-28.074h1.501l1.963-0.131c0.667-0.036,1.34-0.072,2.021-0.111
			c0.679-0.037,1.32-0.055,1.928-0.055c1.223,0,2.382,0.094,3.481,0.279c1.101,0.185,2.1,0.506,3.002,0.963
			c0.605,0.321,1.152,0.746,1.641,1.271c0.488,0.525,0.901,1.11,1.241,1.76c0.341,0.647,0.604,1.346,0.788,2.093
			c0.186,0.748,0.278,1.499,0.278,2.253c0,0.679-0.085,1.358-0.25,2.037c-0.167,0.679-0.408,1.327-0.723,1.944
			s-0.706,1.188-1.175,1.705c-0.471,0.521-1.001,0.959-1.594,1.314c-0.322,0.188-0.653,0.344-0.992,0.465
			c-0.339,0.123-0.7,0.235-1.084,0.333c0.532,0.853,1.078,1.724,1.64,2.612c0.562,0.892,1.127,1.787,1.694,2.688
			c0.57,0.901,1.136,1.794,1.697,2.679c0.562,0.884,1.103,1.743,1.621,2.585l-2.593,1.703l-7.319-11.711
			c-0.284,0.026-0.556,0.043-0.815,0.047c-0.259,0.006-0.519,0.008-0.779,0.008c-0.358,0-0.738-0.008-1.138-0.026
			c-0.403-0.019-0.795-0.04-1.178-0.064c-0.122,0-0.291-0.007-0.5-0.019c-0.209-0.014-0.377-0.019-0.5-0.019
			c-0.1,0-0.194-0.005-0.287-0.019c-0.094-0.013-0.182-0.02-0.268-0.02h-0.168v11.51H121.452z M124.583,137.988v10.357h0.297
			c0.099,0,0.198,0.006,0.296,0.018c0.101,0.014,0.198,0.02,0.297,0.02c0.469,0.023,0.985,0.046,1.547,0.065
			c0.562,0.017,1.096,0.028,1.602,0.028c1.014,0,1.999-0.061,2.957-0.178c0.957-0.119,1.775-0.367,2.455-0.75
			c0.346-0.197,0.652-0.451,0.917-0.762c0.266-0.309,0.485-0.652,0.658-1.037c0.174-0.381,0.306-0.787,0.401-1.213
			c0.09-0.427,0.137-0.855,0.137-1.286c0-0.445-0.058-0.901-0.178-1.371c-0.117-0.471-0.277-0.913-0.48-1.327
			c-0.205-0.413-0.438-0.793-0.704-1.138c-0.266-0.347-0.553-0.624-0.863-0.835h0.038c-0.642-0.283-1.398-0.494-2.27-0.631
			c-0.871-0.135-1.814-0.203-2.825-0.203c-0.607,0-1.225,0.026-1.854,0.074c-0.63,0.05-1.278,0.092-1.945,0.129L124.583,137.988z"/>
		<path fill="#FFFFFF" d="M142.434,161.777l10.118-27.367h2.67l10.04,27.481l-2.983,1.147l-3.503-9.395h-9.894
			c-0.556,1.494-1.142,3.041-1.761,4.641c-0.617,1.603-1.185,3.148-1.704,4.644L142.434,161.777z M153.868,140.136
			c-0.42,1.223-0.862,2.438-1.326,3.643c-0.463,1.201-0.924,2.406-1.379,3.602c-0.162,0.557-0.344,1.078-0.546,1.565
			c-0.205,0.487-0.394,0.993-0.566,1.513h7.634L153.868,140.136z M153.625,139.468l0.242,0.668l0.241-0.668H153.625z"/>
	</g>
	<g>
		<path fill="#FFFFFF" d="M18.425,165.397v24.269h-2.7v-24.269H18.425z"/>
		<path fill="#FFFFFF" d="M40.177,165.078v24.379H37.41l-11.724-18.815c0,1.513,0.009,3.001,0.023,4.47
			c0.018,1.47,0.025,2.955,0.025,4.455v9.746h-2.814V164.98h2.332l12.127,19.33v-9.135c0-1.649,0.003-3.334,0.015-5.049
			c0.01-1.715,0.016-3.398,0.016-5.049H40.177z"/>
		<path fill="#FFFFFF" d="M58.339,168.327c-0.997-0.151-1.977-0.28-2.941-0.386c-0.963-0.107-1.854-0.162-2.669-0.162
			c-0.741,0-1.435,0.051-2.083,0.151c-0.648,0.103-1.221,0.285-1.713,0.549c-0.492,0.264-0.892,0.616-1.198,1.062
			c-0.305,0.445-0.476,1.011-0.506,1.696c-0.022,0.567,0.109,1.077,0.396,1.527c0.283,0.452,0.664,0.863,1.14,1.237
			c0.476,0.375,1.026,0.727,1.649,1.055c0.622,0.328,1.255,0.646,1.897,0.955c0.653,0.323,1.305,0.652,1.954,0.99
			c0.648,0.338,1.255,0.707,1.819,1.11c0.561,0.401,1.067,0.847,1.517,1.333c0.451,0.49,0.81,1.039,1.078,1.649
			c0.194,0.483,0.351,0.973,0.474,1.472c0.124,0.498,0.185,0.982,0.185,1.455c0,0.836-0.164,1.619-0.49,2.348
			c-0.327,0.729-0.839,1.365-1.537,1.906c-0.696,0.541-1.583,0.965-2.662,1.271c-1.076,0.306-2.361,0.458-3.851,0.458
			c-0.75,0-1.607-0.055-2.572-0.162c-0.967-0.105-2-0.272-3.105-0.496l0.515-2.687c1.029,0.183,1.972,0.329,2.83,0.441
			c0.858,0.116,1.635,0.169,2.332,0.169c1.018,0,1.895-0.081,2.63-0.248c0.735-0.168,1.338-0.395,1.811-0.684
			c0.469-0.289,0.816-0.633,1.035-1.029c0.221-0.398,0.33-0.827,0.33-1.287c0-0.278-0.04-0.587-0.12-0.924
			c-0.08-0.338-0.189-0.674-0.33-1.004c-0.161-0.363-0.415-0.717-0.764-1.054c-0.347-0.339-0.753-0.66-1.213-0.966
			c-0.463-0.307-0.956-0.596-1.48-0.869c-0.525-0.273-1.045-0.532-1.559-0.779c-0.793-0.385-1.582-0.819-2.364-1.295
			c-0.784-0.479-1.489-1.014-2.114-1.608c-0.629-0.596-1.141-1.257-1.538-1.987c-0.396-0.727-0.599-1.543-0.61-2.442
			c0.074-1.158,0.342-2.124,0.804-2.896c0.459-0.772,1.062-1.391,1.799-1.857c0.741-0.467,1.592-0.799,2.55-0.996
			c0.958-0.197,1.982-0.299,3.065-0.299c0.995,0,2.001,0.055,3.014,0.161c1.015,0.108,2.013,0.234,2.999,0.384L58.339,168.327z"/>
		<path fill="#FFFFFF" d="M62.852,165.642H79.77v2.715h-7.173V189.7h-2.718v-21.343h-7.027V165.642z"/>
		<path fill="#FFFFFF" d="M86.321,165.397v24.269h-2.7v-24.269H86.321z"/>
		<path fill="#FFFFFF" d="M90.061,165.642h16.917v2.715h-7.17V189.7h-2.719v-21.343h-7.027V165.642z"/>
		<path fill="#FFFFFF" d="M127.057,165.011v16.809c0.065,1.275-0.122,2.395-0.562,3.359c-0.439,0.966-1.037,1.769-1.792,2.412
			c-0.758,0.645-1.631,1.127-2.622,1.448c-0.991,0.32-2.008,0.481-3.048,0.481c-1.028,0-2.034-0.159-3.016-0.475
			s-1.852-0.788-2.612-1.415c-0.762-0.628-1.375-1.41-1.842-2.349c-0.465-0.938-0.699-2.033-0.699-3.287v-17.095h2.733v17.095
			c0,0.791,0.153,1.486,0.466,2.082c0.311,0.594,0.72,1.092,1.23,1.488c0.509,0.395,1.089,0.693,1.737,0.893
			c0.649,0.199,1.316,0.297,2.002,0.297c0.645,0,1.274-0.115,1.89-0.347c0.616-0.23,1.171-0.558,1.664-0.981
			c0.493-0.424,0.898-0.93,1.215-1.519c0.316-0.589,0.491-1.243,0.523-1.963c-0.011-0.147-0.017-0.37-0.017-0.664
			c0-0.296-0.002-0.713-0.008-1.249c-0.004-0.535-0.007-1.213-0.007-2.032c0-0.823,0-1.835,0-3.042s0-2.624,0-4.253
			c0-1.63,0-3.527,0-5.694H127.057z"/>
		<path fill="#FFFFFF" d="M130.844,165.642h16.918v2.715h-7.171V189.7h-2.72v-21.343h-7.027V165.642z"/>
		<path fill="#FFFFFF" d="M165.075,167.907h-7.479c-0.512,0-0.986,0.095-1.414,0.282c-0.428,0.188-0.793,0.461-1.093,0.819
			c-0.301,0.358-0.531,0.802-0.692,1.327c-0.161,0.526-0.235,1.127-0.224,1.803v3.762h11.176v2.701h-11.176v4.904
			c0.011,0.625,0.1,1.162,0.265,1.617c0.166,0.456,0.392,0.833,0.675,1.133c0.283,0.301,0.618,0.521,1.005,0.669
			c0.387,0.145,0.808,0.216,1.272,0.216h7.542v2.768h-7.542c-0.826,0-1.599-0.133-2.315-0.395c-0.72-0.262-1.344-0.656-1.875-1.182
			c-0.531-0.525-0.955-1.187-1.27-1.978c-0.316-0.794-0.491-1.723-0.523-2.782v-11.402c-0.021-1.113,0.112-2.104,0.402-2.967
			c0.289-0.863,0.704-1.594,1.246-2.188c0.54-0.596,1.198-1.047,1.971-1.359c0.771-0.311,1.628-0.465,2.571-0.465h7.479V167.907z"/>
	</g>
	<g>
		<path fill="#FFFFFF" d="M18.056,191.712c0.42,0.017,0.777,0.116,1.07,0.297c0.293,0.178,0.508,0.453,0.649,0.828
			c0.09,0.24,0.159,0.516,0.209,0.831c0.049,0.319,0.073,0.653,0.073,1.007c0,0.327-0.024,0.65-0.073,0.968
			c-0.047,0.317-0.119,0.605-0.215,0.858c-0.087,0.219-0.199,0.405-0.342,0.553c-0.143,0.149-0.301,0.271-0.479,0.359
			c-0.176,0.094-0.366,0.155-0.567,0.191c-0.202,0.037-0.403,0.052-0.605,0.045c-0.432-0.017-0.794-0.115-1.088-0.295
			c-0.292-0.178-0.509-0.457-0.651-0.83c-0.045-0.119-0.085-0.248-0.119-0.389s-0.062-0.291-0.084-0.447s-0.04-0.32-0.052-0.488
			c-0.012-0.17-0.018-0.338-0.018-0.512c0-0.332,0.023-0.659,0.067-0.978c0.045-0.317,0.117-0.604,0.214-0.857
			c0.083-0.219,0.199-0.401,0.341-0.552c0.145-0.148,0.305-0.267,0.485-0.357c0.18-0.088,0.371-0.151,0.574-0.188
			C17.65,191.72,17.855,191.706,18.056,191.712z M18.048,192.367c-0.142-0.004-0.285,0.006-0.428,0.027
			c-0.142,0.021-0.275,0.061-0.401,0.115c-0.123,0.056-0.232,0.131-0.33,0.227c-0.095,0.098-0.17,0.216-0.222,0.357
			c-0.082,0.217-0.145,0.461-0.19,0.74c-0.045,0.276-0.067,0.559-0.067,0.855c0,0.3,0.024,0.591,0.073,0.869
			c0.049,0.279,0.11,0.527,0.184,0.744c0.082,0.219,0.22,0.386,0.413,0.5c0.192,0.113,0.423,0.176,0.696,0.188
			c0.141,0.005,0.282-0.004,0.422-0.024c0.141-0.021,0.273-0.058,0.396-0.114c0.125-0.057,0.234-0.132,0.33-0.225
			c0.095-0.093,0.169-0.211,0.225-0.348c0.083-0.227,0.146-0.477,0.188-0.756c0.044-0.276,0.067-0.559,0.067-0.848
			c0-0.146-0.009-0.295-0.021-0.443c-0.013-0.146-0.03-0.289-0.052-0.43c-0.021-0.139-0.048-0.274-0.079-0.4
			c-0.03-0.127-0.061-0.244-0.097-0.353c-0.086-0.214-0.224-0.38-0.417-0.493C18.548,192.441,18.318,192.378,18.048,192.367z"/>
		<path fill="#FFFFFF" d="M24.286,192.388h-1.782c-0.124,0-0.237,0.022-0.339,0.067c-0.103,0.047-0.189,0.112-0.259,0.197
			s-0.126,0.194-0.164,0.317c-0.039,0.127-0.056,0.267-0.053,0.423v0.899h2.646v0.645h-2.646v2.63h-0.663v-4.174
			c-0.002-0.261,0.03-0.495,0.101-0.7c0.068-0.205,0.167-0.379,0.298-0.52c0.128-0.141,0.286-0.25,0.469-0.323
			c0.183-0.074,0.387-0.112,0.61-0.112h1.782V192.388z"/>
		<path fill="#FFFFFF" d="M27.267,191.66l1.754,4.699c0.29-0.777,0.582-1.561,0.875-2.351c0.296-0.79,0.588-1.581,0.875-2.372
			l0.615,0.234l-2.077,5.665h-0.562l-2.099-5.644L27.267,191.66z"/>
		<path fill="#FFFFFF" d="M34.388,191.712c0.421,0.017,0.777,0.116,1.068,0.297c0.293,0.178,0.511,0.453,0.652,0.828
			c0.09,0.24,0.158,0.516,0.207,0.831c0.05,0.319,0.074,0.653,0.074,1.007c0,0.327-0.024,0.65-0.071,0.968
			c-0.048,0.317-0.12,0.605-0.219,0.858c-0.084,0.219-0.196,0.405-0.341,0.553c-0.141,0.149-0.302,0.271-0.478,0.359
			c-0.178,0.094-0.368,0.155-0.566,0.191c-0.202,0.037-0.405,0.052-0.607,0.045c-0.43-0.017-0.794-0.115-1.088-0.295
			c-0.293-0.178-0.51-0.457-0.651-0.83c-0.045-0.119-0.087-0.248-0.119-0.389c-0.034-0.141-0.063-0.291-0.084-0.447
			c-0.023-0.156-0.04-0.32-0.053-0.488c-0.011-0.17-0.016-0.338-0.016-0.512c0-0.332,0.021-0.659,0.067-0.978
			c0.044-0.317,0.114-0.604,0.214-0.857c0.084-0.219,0.2-0.401,0.342-0.552c0.142-0.148,0.304-0.267,0.485-0.357
			c0.18-0.088,0.37-0.151,0.575-0.188C33.982,191.72,34.185,191.706,34.388,191.712z M34.38,192.367
			c-0.144-0.004-0.287,0.006-0.431,0.027c-0.142,0.021-0.274,0.061-0.398,0.115c-0.125,0.056-0.235,0.131-0.331,0.227
			c-0.096,0.098-0.168,0.216-0.221,0.357c-0.081,0.217-0.145,0.461-0.19,0.74c-0.045,0.276-0.066,0.559-0.066,0.855
			c0,0.3,0.023,0.591,0.073,0.869c0.048,0.279,0.109,0.527,0.184,0.744c0.083,0.219,0.219,0.386,0.413,0.5
			c0.192,0.113,0.423,0.176,0.696,0.188c0.141,0.005,0.282-0.004,0.423-0.024c0.141-0.021,0.273-0.058,0.396-0.114
			c0.125-0.057,0.232-0.132,0.329-0.225c0.096-0.093,0.172-0.211,0.225-0.348c0.083-0.227,0.146-0.477,0.188-0.756
			c0.045-0.276,0.066-0.559,0.066-0.848c0-0.146-0.006-0.295-0.019-0.443c-0.013-0.146-0.03-0.289-0.054-0.43
			c-0.021-0.139-0.047-0.274-0.077-0.4c-0.032-0.127-0.062-0.244-0.098-0.353c-0.085-0.214-0.226-0.38-0.416-0.493
			C34.879,192.441,34.65,192.378,34.38,192.367z"/>
		<path fill="#FFFFFF" d="M40.804,192.496c-0.196-0.021-0.385-0.035-0.572-0.048c-0.188-0.012-0.361-0.017-0.52-0.017
			s-0.316,0.01-0.472,0.034c-0.154,0.022-0.3,0.063-0.435,0.116c-0.134,0.057-0.254,0.129-0.36,0.219
			c-0.104,0.09-0.187,0.201-0.245,0.334c-0.035,0.109-0.064,0.229-0.092,0.357c-0.029,0.129-0.053,0.263-0.073,0.402
			c-0.021,0.137-0.038,0.277-0.048,0.418c-0.013,0.145-0.017,0.283-0.017,0.42c0,0.309,0.021,0.607,0.069,0.895
			c0.046,0.288,0.113,0.541,0.203,0.76l-0.011-0.008c0.055,0.11,0.132,0.205,0.234,0.276c0.104,0.071,0.222,0.128,0.358,0.169
			c0.134,0.042,0.279,0.07,0.44,0.085c0.161,0.017,0.325,0.023,0.492,0.023c0.169,0,0.341-0.007,0.517-0.015
			c0.175-0.011,0.343-0.022,0.502-0.037l0.057,0.655c-0.083,0.005-0.167,0.012-0.257,0.021c-0.089,0.006-0.18,0.013-0.275,0.018
			c-0.092,0.006-0.185,0.01-0.279,0.014c-0.09,0.005-0.18,0.008-0.264,0.008c-0.222,0-0.438-0.018-0.653-0.053
			c-0.213-0.033-0.415-0.088-0.601-0.162c-0.184-0.08-0.354-0.182-0.503-0.309s-0.272-0.285-0.368-0.471
			c-0.051-0.119-0.096-0.25-0.135-0.399c-0.042-0.146-0.074-0.3-0.101-0.461c-0.028-0.164-0.048-0.332-0.063-0.501
			c-0.015-0.174-0.023-0.342-0.023-0.508s0.006-0.328,0.017-0.494c0.011-0.164,0.029-0.322,0.055-0.479
			c0.024-0.156,0.052-0.308,0.086-0.452c0.036-0.146,0.077-0.278,0.122-0.402c0.088-0.216,0.205-0.395,0.352-0.539
			c0.148-0.146,0.315-0.262,0.501-0.347c0.188-0.087,0.391-0.147,0.609-0.188c0.214-0.036,0.436-0.052,0.662-0.052
			c0.186,0,0.374,0.002,0.567,0.017c0.194,0.013,0.391,0.03,0.591,0.05L40.804,192.496z"/>
		<path fill="#FFFFFF" d="M41.193,197.363l2.1-5.684h0.554l2.086,5.707l-0.619,0.238l-0.728-1.95h-2.054
			c-0.116,0.309-0.238,0.632-0.367,0.962c-0.127,0.332-0.245,0.652-0.354,0.965L41.193,197.363z M43.565,192.869
			c-0.085,0.254-0.177,0.506-0.274,0.755c-0.095,0.251-0.191,0.499-0.286,0.75c-0.033,0.114-0.071,0.223-0.114,0.325
			c-0.041,0.102-0.081,0.206-0.117,0.313h1.583L43.565,192.869z M43.516,192.73l0.049,0.139l0.052-0.139H43.516z"/>
		<path fill="#FFFFFF" d="M46.428,191.845h4.049v0.65h-1.716v5.105H48.11v-5.105h-1.682V191.845z"/>
		<path fill="#FFFFFF" d="M51.959,191.789v5.807h-0.644v-5.807H51.959z"/>
		<path fill="#FFFFFF" d="M55.231,191.712c0.421,0.017,0.777,0.116,1.07,0.297c0.292,0.178,0.508,0.453,0.65,0.828
			c0.089,0.24,0.16,0.516,0.207,0.831c0.049,0.319,0.073,0.653,0.073,1.007c0,0.327-0.023,0.65-0.071,0.968
			c-0.047,0.317-0.12,0.605-0.216,0.858c-0.084,0.219-0.199,0.405-0.342,0.553c-0.142,0.149-0.301,0.271-0.478,0.359
			c-0.179,0.094-0.366,0.155-0.568,0.191c-0.202,0.037-0.404,0.052-0.605,0.045c-0.431-0.017-0.793-0.115-1.087-0.295
			c-0.295-0.178-0.511-0.457-0.652-0.83c-0.047-0.119-0.085-0.248-0.12-0.389c-0.032-0.141-0.061-0.291-0.085-0.447
			c-0.021-0.156-0.041-0.32-0.052-0.488c-0.011-0.17-0.017-0.338-0.017-0.512c0-0.332,0.022-0.659,0.067-0.978
			c0.045-0.317,0.116-0.604,0.214-0.857c0.085-0.219,0.199-0.401,0.341-0.552c0.145-0.148,0.306-0.267,0.485-0.357
			c0.18-0.088,0.372-0.151,0.575-0.188C54.825,191.72,55.028,191.706,55.231,191.712z M55.225,192.367
			c-0.145-0.004-0.287,0.006-0.429,0.027c-0.143,0.021-0.277,0.061-0.401,0.115c-0.126,0.056-0.236,0.131-0.331,0.227
			c-0.098,0.098-0.169,0.216-0.223,0.357c-0.081,0.217-0.145,0.461-0.189,0.74c-0.046,0.276-0.068,0.559-0.068,0.855
			c0,0.3,0.024,0.591,0.074,0.869c0.048,0.279,0.11,0.527,0.184,0.744c0.084,0.219,0.221,0.386,0.413,0.5
			c0.194,0.113,0.425,0.176,0.697,0.188c0.139,0.005,0.282-0.004,0.421-0.024c0.142-0.021,0.274-0.058,0.397-0.114
			c0.123-0.057,0.233-0.132,0.329-0.225c0.097-0.093,0.17-0.211,0.224-0.348c0.084-0.227,0.146-0.477,0.188-0.756
			c0.044-0.276,0.066-0.559,0.066-0.848c0-0.146-0.006-0.295-0.018-0.443c-0.014-0.146-0.031-0.289-0.052-0.43
			c-0.024-0.139-0.048-0.274-0.08-0.4c-0.031-0.127-0.063-0.244-0.096-0.353c-0.088-0.214-0.228-0.38-0.419-0.493
			C55.723,192.441,55.494,192.378,55.225,192.367z"/>
		<path fill="#FFFFFF" d="M62.376,191.712v5.83h-0.662l-2.804-4.5c0,0.361,0.002,0.719,0.004,1.069
			c0.007,0.351,0.007,0.708,0.007,1.065v2.33h-0.673v-5.818h0.559l2.901,4.623v-2.186c0-0.394,0-0.795,0.002-1.208
			c0.003-0.409,0.004-0.812,0.004-1.206H62.376z"/>
		<path fill="#FFFFFF" d="M63.08,197.363l2.1-5.684h0.555l2.083,5.707l-0.62,0.238l-0.727-1.95h-2.054
			c-0.117,0.309-0.237,0.632-0.366,0.962c-0.129,0.332-0.245,0.652-0.354,0.965L63.08,197.363z M65.453,192.869
			c-0.086,0.254-0.18,0.506-0.274,0.755c-0.098,0.251-0.194,0.499-0.288,0.75c-0.033,0.114-0.072,0.223-0.113,0.325
			c-0.042,0.102-0.082,0.206-0.118,0.313h1.586L65.453,192.869z M65.403,192.73l0.05,0.139l0.051-0.139H65.403z"/>
		<path fill="#FFFFFF" d="M71.66,197.585h-1.79c-0.183,0-0.358-0.017-0.524-0.053c-0.167-0.033-0.313-0.102-0.442-0.199
			c-0.129-0.1-0.23-0.234-0.308-0.408c-0.077-0.176-0.115-0.402-0.115-0.684v-4.539h0.652v4.539c0,0.148,0.02,0.264,0.062,0.354
			c0.04,0.086,0.093,0.156,0.161,0.207c0.067,0.047,0.146,0.08,0.233,0.096c0.089,0.018,0.182,0.027,0.281,0.027h1.79V197.585z"/>
		<path fill="#FFFFFF" d="M79.061,193.227l-0.704,2.316c-0.052,0.157-0.115,0.308-0.188,0.452c-0.073,0.145-0.154,0.285-0.243,0.424
			c0.102,0.08,0.211,0.154,0.325,0.217c0.114,0.068,0.232,0.123,0.356,0.166c0.122,0.045,0.253,0.078,0.389,0.1
			c0.137,0.021,0.278,0.023,0.427,0.016l0.043,0.66c-0.209,0.013-0.402,0.006-0.585-0.021c-0.182-0.03-0.354-0.073-0.514-0.131
			c-0.16-0.061-0.31-0.132-0.452-0.218c-0.139-0.085-0.273-0.181-0.398-0.282c-0.285,0.278-0.591,0.489-0.917,0.633
			c-0.326,0.144-0.644,0.217-0.961,0.217c-0.19,0-0.372-0.028-0.545-0.08c-0.175-0.06-0.333-0.143-0.48-0.252
			c-0.145-0.111-0.271-0.252-0.38-0.425c-0.108-0.171-0.191-0.368-0.249-0.599v0.008c-0.019-0.053-0.032-0.112-0.036-0.172
			c-0.002-0.062-0.004-0.125-0.004-0.193c0-0.178,0.023-0.355,0.078-0.54c0.054-0.185,0.129-0.36,0.229-0.526
			c0.101-0.169,0.222-0.326,0.365-0.471c0.145-0.145,0.308-0.27,0.493-0.375c-0.063-0.092-0.12-0.186-0.175-0.277
			c-0.055-0.095-0.102-0.186-0.147-0.272c-0.042-0.088-0.078-0.171-0.105-0.249c-0.028-0.08-0.048-0.152-0.061-0.217
			c-0.017-0.186-0.006-0.37,0.036-0.551c0.042-0.18,0.115-0.34,0.22-0.484c0.103-0.143,0.237-0.262,0.4-0.354
			c0.164-0.093,0.355-0.146,0.575-0.157c0.21-0.009,0.397,0.022,0.566,0.087c0.166,0.065,0.307,0.155,0.418,0.27
			c0.116,0.116,0.201,0.252,0.26,0.408c0.061,0.158,0.089,0.323,0.089,0.501c0,0.144-0.019,0.288-0.06,0.435
			c-0.042,0.145-0.105,0.287-0.193,0.428c-0.086,0.137-0.198,0.268-0.334,0.392c-0.135,0.118-0.299,0.226-0.489,0.315
			c0.113,0.146,0.228,0.289,0.349,0.43c0.118,0.14,0.225,0.26,0.32,0.358c0.033,0.034,0.063,0.066,0.089,0.099
			c0.024,0.027,0.049,0.055,0.068,0.075l0.116,0.138l0.116,0.137h-0.009l0.266,0.295c0.06-0.088,0.113-0.182,0.165-0.285
			c0.051-0.102,0.095-0.211,0.13-0.326l0.713-2.324L79.061,193.227z M75.636,197.14c0.108,0,0.221-0.016,0.337-0.049
			s0.235-0.078,0.352-0.135c0.119-0.06,0.234-0.133,0.35-0.216c0.116-0.081,0.225-0.177,0.331-0.283
			c-0.083-0.087-0.161-0.175-0.234-0.259c-0.074-0.086-0.149-0.168-0.22-0.252l-0.254-0.296h0.007
			c-0.074-0.078-0.148-0.157-0.222-0.242c-0.073-0.081-0.145-0.165-0.216-0.247c-0.07-0.086-0.137-0.166-0.199-0.248
			c-0.067-0.08-0.126-0.155-0.183-0.225c-0.135,0.072-0.258,0.16-0.371,0.266c-0.111,0.104-0.207,0.221-0.287,0.34
			c-0.079,0.121-0.142,0.252-0.182,0.382c-0.042,0.134-0.063,0.261-0.063,0.386c0,0.029,0.003,0.062,0.008,0.104
			c0.003,0.041,0.01,0.079,0.018,0.113c0.033,0.145,0.084,0.271,0.152,0.383c0.067,0.107,0.147,0.199,0.238,0.268
			c0.091,0.072,0.191,0.123,0.3,0.16C75.409,197.123,75.522,197.14,75.636,197.14z M75.277,193.07
			c0.009,0.098,0.05,0.217,0.124,0.357c0.074,0.145,0.175,0.301,0.3,0.472c0.146-0.065,0.272-0.136,0.375-0.219
			c0.104-0.083,0.189-0.168,0.257-0.261c0.07-0.088,0.119-0.183,0.149-0.281c0.031-0.098,0.046-0.193,0.046-0.284
			c0-0.09-0.014-0.175-0.044-0.251c-0.03-0.076-0.073-0.143-0.126-0.197c-0.056-0.055-0.124-0.098-0.204-0.127
			c-0.082-0.029-0.172-0.042-0.272-0.035c-0.112,0.006-0.211,0.035-0.293,0.082c-0.084,0.049-0.152,0.111-0.201,0.188
			c-0.052,0.076-0.088,0.16-0.105,0.256c-0.019,0.095-0.02,0.192-0.005,0.293V193.07z"/>
		<path fill="#FFFFFF" d="M85.426,192.481c-0.195-0.021-0.385-0.036-0.573-0.049c-0.188-0.011-0.36-0.017-0.521-0.017
			c-0.16,0-0.317,0.01-0.473,0.033s-0.3,0.064-0.435,0.121c-0.136,0.053-0.256,0.128-0.362,0.218
			c-0.105,0.089-0.188,0.199-0.247,0.335c-0.034,0.109-0.064,0.23-0.093,0.357c-0.028,0.129-0.054,0.262-0.073,0.4
			c-0.021,0.141-0.037,0.281-0.048,0.424c-0.011,0.143-0.017,0.283-0.017,0.421c0,0.309,0.022,0.608,0.068,0.897
			c0.047,0.287,0.115,0.541,0.206,0.76l-0.013-0.008c0.055,0.113,0.134,0.207,0.236,0.277c0.102,0.071,0.222,0.129,0.358,0.172
			c0.135,0.04,0.282,0.068,0.444,0.083c0.16,0.017,0.323,0.022,0.491,0.022c0.17,0,0.343-0.004,0.521-0.014
			c0.176-0.012,0.343-0.021,0.502-0.035l0.058,0.654c-0.083,0.006-0.168,0.013-0.259,0.02c-0.089,0.008-0.181,0.015-0.275,0.02
			c-0.094,0.006-0.187,0.01-0.28,0.014c-0.092,0.003-0.181,0.008-0.267,0.008c-0.221,0-0.439-0.018-0.653-0.053
			c-0.215-0.033-0.416-0.088-0.603-0.164c-0.187-0.078-0.355-0.18-0.505-0.309c-0.151-0.129-0.273-0.283-0.369-0.472
			c-0.052-0.119-0.096-0.251-0.137-0.401c-0.04-0.145-0.074-0.302-0.102-0.463c-0.026-0.161-0.047-0.33-0.063-0.501
			c-0.014-0.174-0.022-0.345-0.022-0.508c0-0.166,0.006-0.333,0.017-0.495c0.012-0.166,0.03-0.326,0.055-0.483
			c0.025-0.155,0.055-0.309,0.09-0.453c0.034-0.146,0.073-0.28,0.12-0.403c0.089-0.217,0.207-0.396,0.353-0.541
			c0.149-0.146,0.317-0.26,0.505-0.348s0.389-0.149,0.607-0.188c0.217-0.035,0.439-0.054,0.666-0.054
			c0.186,0,0.376,0.007,0.569,0.019c0.195,0.015,0.391,0.029,0.594,0.05L85.426,192.481z"/>
		<path fill="#FFFFFF" d="M88.456,191.693c0.423,0.02,0.779,0.117,1.074,0.297c0.293,0.181,0.51,0.459,0.652,0.836
			c0.088,0.236,0.16,0.513,0.207,0.832c0.049,0.319,0.075,0.654,0.075,1.008c0,0.328-0.026,0.652-0.073,0.973
			c-0.047,0.316-0.121,0.604-0.218,0.859c-0.084,0.222-0.2,0.406-0.342,0.555c-0.142,0.151-0.302,0.27-0.48,0.361
			c-0.179,0.094-0.366,0.155-0.568,0.191c-0.203,0.037-0.406,0.052-0.609,0.045c-0.431-0.017-0.796-0.116-1.09-0.295
			c-0.294-0.18-0.51-0.458-0.654-0.834c-0.046-0.119-0.088-0.246-0.12-0.389c-0.033-0.143-0.062-0.291-0.084-0.449
			c-0.022-0.156-0.041-0.319-0.053-0.488c-0.011-0.17-0.017-0.342-0.017-0.515c0-0.335,0.022-0.661,0.069-0.979
			c0.045-0.319,0.116-0.606,0.213-0.861c0.085-0.218,0.201-0.403,0.344-0.552c0.145-0.151,0.306-0.268,0.486-0.359
			c0.181-0.09,0.373-0.15,0.577-0.188C88.05,191.703,88.253,191.689,88.456,191.693z M88.449,192.349
			c-0.145-0.001-0.287,0.007-0.431,0.029c-0.145,0.022-0.276,0.059-0.402,0.117c-0.124,0.053-0.234,0.131-0.331,0.226
			c-0.096,0.1-0.169,0.216-0.223,0.358c-0.082,0.219-0.145,0.466-0.191,0.743c-0.044,0.276-0.067,0.562-0.067,0.857
			c0,0.301,0.024,0.591,0.074,0.872c0.048,0.281,0.112,0.529,0.185,0.744c0.083,0.223,0.221,0.389,0.413,0.503
			c0.194,0.112,0.426,0.176,0.699,0.188c0.142,0.004,0.284-0.004,0.424-0.023c0.142-0.02,0.274-0.059,0.399-0.117
			c0.123-0.055,0.232-0.131,0.33-0.225c0.094-0.096,0.169-0.211,0.223-0.348c0.084-0.228,0.147-0.48,0.19-0.757
			c0.043-0.278,0.065-0.562,0.065-0.853c0-0.146-0.004-0.297-0.021-0.441c-0.011-0.149-0.028-0.292-0.051-0.433
			c-0.021-0.142-0.047-0.275-0.077-0.4c-0.031-0.128-0.063-0.245-0.098-0.354c-0.088-0.216-0.227-0.382-0.419-0.498
			C88.95,192.425,88.72,192.363,88.449,192.349z"/>
		<path fill="#FFFFFF" d="M95.621,191.693v5.85h-0.663l-2.813-4.513c0,0.361,0.002,0.72,0.005,1.073
			c0.004,0.352,0.006,0.707,0.006,1.068v2.336h-0.675v-5.836h0.559l2.911,4.637v-2.191c0-0.395,0-0.8,0.002-1.211
			c0.002-0.412,0.004-0.816,0.004-1.213H95.621z"/>
		<path fill="#FFFFFF" d="M96.501,191.829h4.059v0.652h-1.72v5.12h-0.652v-5.12h-1.688V191.829z"/>
		<path fill="#FFFFFF" d="M102.05,191.772v5.823h-0.648v-5.823H102.05z"/>
		<path fill="#FFFFFF" d="M107.185,191.693v5.85h-0.663l-2.812-4.513c0,0.361,0.002,0.72,0.005,1.073
			c0.004,0.352,0.007,0.707,0.007,1.068v2.336h-0.676v-5.836h0.559l2.911,4.637v-2.191c0-0.395,0-0.8,0.004-1.211
			c0.002-0.412,0.002-0.816,0.002-1.213H107.185z"/>
		<path fill="#FFFFFF" d="M112.132,191.677v4.035c0.015,0.305-0.03,0.572-0.134,0.805c-0.106,0.232-0.251,0.424-0.432,0.578
			c-0.181,0.153-0.39,0.27-0.628,0.348c-0.239,0.076-0.482,0.114-0.733,0.114c-0.247,0-0.487-0.036-0.721-0.114
			c-0.236-0.073-0.446-0.188-0.629-0.339c-0.181-0.147-0.329-0.337-0.441-0.563c-0.111-0.223-0.167-0.484-0.167-0.789v-4.1h0.656
			v4.1c0,0.191,0.038,0.359,0.112,0.502c0.075,0.143,0.173,0.262,0.295,0.356s0.261,0.166,0.418,0.214
			c0.154,0.047,0.314,0.071,0.478,0.071c0.154,0,0.306-0.026,0.455-0.083c0.149-0.056,0.28-0.134,0.4-0.235
			c0.118-0.103,0.214-0.222,0.292-0.366c0.075-0.141,0.118-0.299,0.124-0.47c-0.003-0.034-0.005-0.09-0.005-0.159
			c0-0.071,0-0.173-0.001-0.299c0-0.129,0-0.292,0-0.489s0-0.44,0-0.729s0-0.629,0-1.02c0-0.395,0-0.846,0-1.367H112.132z"/>
		<path fill="#FFFFFF" d="M113.78,191.772v5.823h-0.648v-5.823H113.78z"/>
		<path fill="#FFFFFF" d="M118.917,191.693v5.85h-0.666l-2.812-4.513c0,0.361,0.002,0.72,0.006,1.073
			c0.002,0.352,0.004,0.707,0.004,1.068v2.336h-0.674v-5.836h0.56l2.908,4.637v-2.191c0-0.395,0.001-0.8,0.005-1.211
			c0.002-0.412,0.002-0.816,0.002-1.213H118.917z"/>
		<path fill="#FFFFFF" d="M123.539,192.435c-0.021,0-0.049-0.003-0.088-0.008c-0.038-0.003-0.065-0.004-0.086-0.004
			c-0.044,0-0.089-0.002-0.134-0.002c-0.047-0.006-0.092-0.008-0.132-0.014c-0.021,0-0.044-0.002-0.071-0.007
			c-0.026-0.007-0.047-0.009-0.065-0.009c-0.141-0.018-0.284-0.032-0.426-0.043c-0.141-0.01-0.278-0.014-0.403-0.014
			c-0.154,0-0.306,0.013-0.457,0.039c-0.15,0.023-0.291,0.062-0.418,0.121c-0.13,0.059-0.242,0.133-0.344,0.226
			c-0.097,0.095-0.175,0.209-0.233,0.341c-0.079,0.223-0.141,0.475-0.186,0.756c-0.045,0.283-0.069,0.564-0.069,0.848
			c0,0.309,0.023,0.605,0.066,0.889c0.044,0.283,0.107,0.531,0.188,0.742c0.047,0.136,0.117,0.246,0.21,0.337
			c0.095,0.093,0.206,0.166,0.33,0.221c0.128,0.056,0.265,0.096,0.416,0.121c0.15,0.023,0.305,0.036,0.466,0.036
			c0.121,0,0.254-0.008,0.391-0.021c0.141-0.015,0.27-0.033,0.395-0.061V195.8c0-0.191,0-0.392,0.002-0.604
			c0.004-0.211,0.004-0.415,0.004-0.617h0.648v2.878c-0.26,0.066-0.517,0.116-0.761,0.151c-0.246,0.038-0.473,0.058-0.68,0.058
			c-0.223,0-0.439-0.02-0.649-0.062c-0.211-0.041-0.407-0.107-0.589-0.199c-0.179-0.09-0.342-0.209-0.481-0.355
			c-0.139-0.144-0.25-0.322-0.329-0.529c-0.045-0.119-0.084-0.248-0.117-0.395c-0.034-0.144-0.063-0.296-0.085-0.455
			c-0.022-0.16-0.041-0.324-0.053-0.494c-0.015-0.173-0.021-0.342-0.021-0.512c0-0.338,0.024-0.664,0.071-0.98
			c0.048-0.315,0.115-0.598,0.206-0.845c0.085-0.235,0.202-0.427,0.345-0.577c0.145-0.15,0.308-0.266,0.491-0.356
			c0.184-0.083,0.38-0.145,0.592-0.178c0.213-0.034,0.43-0.052,0.65-0.052c0.163,0,0.321,0.007,0.478,0.021
			c0.157,0.011,0.307,0.028,0.444,0.047c0.015,0,0.03,0,0.051,0.004c0.021,0.002,0.041,0.003,0.058,0.003l0.389,0.026
			L123.539,192.435z"/>
		<path fill="#FFFFFF" d="M129.701,192.375h-1.795c-0.122,0-0.237,0.02-0.339,0.064c-0.103,0.049-0.19,0.113-0.262,0.199
			c-0.072,0.085-0.128,0.192-0.165,0.318c-0.039,0.126-0.058,0.271-0.056,0.432v0.902h2.682v0.646h-2.682v1.18
			c0.002,0.148,0.025,0.277,0.064,0.387c0.041,0.109,0.093,0.201,0.163,0.272c0.067,0.071,0.147,0.126,0.24,0.161
			c0.094,0.033,0.195,0.051,0.306,0.051h1.81v0.662h-1.81c-0.198,0-0.384-0.031-0.555-0.094c-0.175-0.063-0.323-0.156-0.45-0.285
			c-0.126-0.123-0.228-0.281-0.305-0.472c-0.075-0.192-0.117-0.413-0.126-0.667v-2.736c-0.003-0.269,0.029-0.506,0.099-0.711
			c0.068-0.208,0.168-0.383,0.299-0.525c0.129-0.144,0.286-0.253,0.471-0.328c0.187-0.071,0.391-0.111,0.617-0.111h1.795V192.375z"
			/>
		<path fill="#FFFFFF" d="M134.5,194.65c0,0.583-0.048,1.067-0.149,1.447c-0.101,0.38-0.25,0.684-0.446,0.91
			c-0.197,0.227-0.44,0.384-0.729,0.474c-0.292,0.09-0.627,0.138-1.005,0.138c-0.196,0-0.43-0.018-0.7-0.049
			c-0.272-0.031-0.572-0.072-0.901-0.127v-5.584c0.311-0.023,0.597-0.045,0.853-0.054c0.259-0.012,0.49-0.02,0.69-0.02
			c0.27,0,0.518,0.017,0.74,0.046c0.223,0.032,0.424,0.087,0.6,0.168c0.176,0.078,0.33,0.188,0.462,0.326
			c0.131,0.137,0.241,0.312,0.328,0.523c0.088,0.213,0.153,0.466,0.194,0.764C134.48,193.908,134.5,194.253,134.5,194.65z
			 M133.853,194.65c0-0.305-0.014-0.57-0.045-0.799c-0.032-0.228-0.079-0.422-0.142-0.584c-0.062-0.164-0.143-0.301-0.239-0.406
			c-0.098-0.107-0.208-0.189-0.338-0.252c-0.128-0.061-0.274-0.104-0.436-0.13c-0.163-0.023-0.342-0.038-0.54-0.038
			c-0.068,0-0.138,0-0.205,0c-0.067,0-0.135,0.002-0.206,0.004c-0.072,0-0.146,0.003-0.223,0.008
			c-0.076,0.003-0.161,0.008-0.255,0.013v4.423c0.176,0.02,0.347,0.035,0.512,0.049c0.165,0.01,0.31,0.016,0.434,0.016
			c0.272,0,0.512-0.035,0.723-0.105c0.21-0.066,0.385-0.19,0.528-0.365c0.143-0.176,0.25-0.41,0.321-0.707
			C133.817,195.475,133.853,195.103,133.853,194.65z"/>
		<path fill="#FFFFFF" d="M139.255,191.677v4.035c0.015,0.305-0.03,0.572-0.136,0.805c-0.104,0.232-0.248,0.424-0.428,0.578
			c-0.183,0.153-0.393,0.27-0.631,0.348c-0.237,0.076-0.482,0.114-0.731,0.114c-0.248,0-0.488-0.036-0.723-0.114
			c-0.235-0.073-0.445-0.188-0.627-0.339c-0.182-0.147-0.329-0.337-0.441-0.563c-0.113-0.223-0.167-0.484-0.167-0.789v-4.1h0.655
			v4.1c0,0.191,0.037,0.359,0.113,0.502c0.074,0.143,0.172,0.262,0.294,0.356s0.26,0.166,0.416,0.214
			c0.156,0.047,0.317,0.071,0.481,0.071c0.155,0,0.305-0.026,0.453-0.083c0.148-0.056,0.282-0.134,0.398-0.235
			c0.12-0.103,0.217-0.222,0.292-0.366c0.079-0.141,0.119-0.299,0.126-0.47c-0.003-0.034-0.003-0.09-0.003-0.159
			c0-0.071-0.002-0.173-0.002-0.299c-0.002-0.129-0.002-0.292-0.002-0.489s0-0.44,0-0.729s0-0.629,0-1.02c0-0.395,0-0.846,0-1.367
			H139.255z"/>
		<path fill="#FFFFFF" d="M143.674,192.481c-0.196-0.021-0.388-0.036-0.576-0.049c-0.187-0.011-0.36-0.017-0.521-0.017
			c-0.158,0-0.316,0.01-0.471,0.033c-0.157,0.023-0.302,0.064-0.435,0.121c-0.136,0.053-0.257,0.128-0.362,0.218
			c-0.105,0.089-0.188,0.199-0.247,0.335c-0.034,0.109-0.064,0.23-0.092,0.357c-0.029,0.129-0.053,0.262-0.075,0.4
			c-0.02,0.141-0.037,0.281-0.047,0.424s-0.018,0.283-0.018,0.421c0,0.309,0.025,0.608,0.071,0.897
			c0.046,0.287,0.114,0.541,0.205,0.76l-0.013-0.008c0.053,0.113,0.132,0.207,0.234,0.277c0.104,0.071,0.223,0.129,0.357,0.172
			c0.136,0.04,0.285,0.068,0.446,0.083c0.16,0.017,0.324,0.022,0.491,0.022c0.17,0,0.343-0.004,0.519-0.014
			c0.176-0.012,0.345-0.021,0.505-0.035l0.058,0.654c-0.083,0.006-0.168,0.013-0.259,0.02c-0.09,0.008-0.181,0.015-0.275,0.02
			c-0.094,0.006-0.188,0.01-0.281,0.014c-0.092,0.003-0.181,0.008-0.266,0.008c-0.221,0-0.439-0.018-0.654-0.053
			c-0.215-0.033-0.416-0.088-0.601-0.164c-0.188-0.078-0.355-0.18-0.507-0.309c-0.149-0.129-0.272-0.283-0.367-0.472
			c-0.052-0.119-0.098-0.251-0.138-0.401c-0.039-0.145-0.073-0.302-0.1-0.463c-0.026-0.161-0.048-0.33-0.063-0.501
			c-0.016-0.174-0.022-0.345-0.022-0.508c0-0.166,0.004-0.333,0.016-0.495c0.012-0.166,0.03-0.326,0.055-0.483
			c0.024-0.155,0.053-0.309,0.089-0.453c0.034-0.146,0.075-0.28,0.121-0.403c0.087-0.217,0.206-0.396,0.353-0.541
			c0.148-0.146,0.315-0.26,0.502-0.348c0.189-0.088,0.391-0.149,0.61-0.188c0.216-0.035,0.438-0.054,0.664-0.054
			c0.185,0,0.374,0.007,0.57,0.019c0.194,0.015,0.392,0.029,0.592,0.05L143.674,192.481z"/>
		<path fill="#FFFFFF" d="M144.062,197.361l2.107-5.698h0.555l2.092,5.722l-0.62,0.24l-0.73-1.955h-2.061
			c-0.116,0.309-0.238,0.633-0.366,0.964c-0.129,0.333-0.247,0.655-0.355,0.968L144.062,197.361z M146.443,192.857
			c-0.087,0.254-0.178,0.505-0.275,0.756c-0.096,0.25-0.192,0.504-0.287,0.752c-0.033,0.115-0.071,0.223-0.114,0.324
			c-0.042,0.103-0.08,0.205-0.118,0.315h1.59L146.443,192.857z M146.393,192.716l0.05,0.141l0.051-0.141H146.393z"/>
		<path fill="#FFFFFF" d="M149.314,191.829h4.059v0.652h-1.72v5.12h-0.653v-5.12h-1.687V191.829z"/>
		<path fill="#FFFFFF" d="M154.863,191.772v5.823h-0.648v-5.823H154.863z"/>
		<path fill="#FFFFFF" d="M158.143,191.693c0.423,0.02,0.78,0.117,1.074,0.297c0.292,0.181,0.51,0.459,0.65,0.836
			c0.09,0.236,0.16,0.513,0.209,0.832c0.048,0.319,0.073,0.654,0.073,1.008c0,0.328-0.022,0.652-0.071,0.973
			c-0.048,0.316-0.121,0.604-0.217,0.859c-0.085,0.222-0.2,0.406-0.342,0.555c-0.143,0.151-0.302,0.27-0.481,0.361
			c-0.176,0.094-0.366,0.155-0.569,0.191c-0.202,0.037-0.404,0.052-0.607,0.045c-0.432-0.017-0.795-0.116-1.09-0.295
			c-0.295-0.18-0.512-0.458-0.655-0.834c-0.046-0.119-0.084-0.246-0.118-0.389s-0.062-0.291-0.086-0.449
			c-0.023-0.156-0.04-0.319-0.053-0.488c-0.01-0.17-0.017-0.342-0.017-0.515c0-0.335,0.022-0.661,0.068-0.979
			c0.045-0.319,0.117-0.606,0.214-0.861c0.083-0.218,0.198-0.403,0.343-0.552c0.144-0.151,0.308-0.268,0.486-0.359
			c0.18-0.09,0.372-0.15,0.577-0.188C157.737,191.703,157.94,191.689,158.143,191.693z M158.137,192.349
			c-0.146-0.001-0.289,0.007-0.432,0.029c-0.141,0.022-0.276,0.059-0.401,0.117c-0.124,0.053-0.234,0.131-0.332,0.226
			c-0.096,0.1-0.17,0.216-0.223,0.358c-0.082,0.219-0.144,0.466-0.188,0.743c-0.045,0.276-0.069,0.562-0.069,0.857
			c0,0.301,0.026,0.591,0.073,0.872c0.049,0.281,0.11,0.529,0.185,0.744c0.083,0.223,0.221,0.389,0.415,0.503
			c0.193,0.112,0.425,0.176,0.698,0.188c0.14,0.004,0.282-0.004,0.423-0.023c0.143-0.02,0.275-0.059,0.4-0.117
			c0.122-0.055,0.232-0.131,0.329-0.225c0.097-0.096,0.171-0.211,0.226-0.348c0.082-0.228,0.146-0.48,0.188-0.757
			c0.045-0.278,0.066-0.562,0.066-0.853c0-0.146-0.007-0.297-0.019-0.441c-0.014-0.149-0.031-0.292-0.054-0.433
			c-0.021-0.142-0.047-0.275-0.08-0.4c-0.03-0.128-0.062-0.245-0.094-0.354c-0.088-0.216-0.228-0.382-0.42-0.498
			C158.637,192.425,158.405,192.363,158.137,192.349z"/>
		<path fill="#FFFFFF" d="M165.308,191.693v5.85h-0.664l-2.812-4.513c0,0.361,0.002,0.72,0.007,1.073
			c0.002,0.352,0.004,0.707,0.004,1.068v2.336h-0.675v-5.836h0.561l2.909,4.637v-2.191c0-0.395,0-0.8,0.004-1.211
			c0.001-0.412,0.002-0.816,0.002-1.213H165.308z"/>
	</g>
	<path fill="#FFFFFF" d="M15.793,199.65v13.741h149.848V199.65H15.793z M20.004,208.796c-0.047,0.032-0.117,0.107-0.209,0.222
		c-0.093,0.116-0.179,0.232-0.258,0.351c-0.094,0.152-0.181,0.286-0.256,0.402c-0.075,0.115-0.149,0.229-0.216,0.34
		c-0.068,0.113-0.135,0.229-0.204,0.354c-0.067,0.123-0.145,0.264-0.233,0.422c-0.143-0.109-0.287-0.195-0.436-0.254
		c-0.146-0.061-0.324-0.102-0.53-0.128c0.366-0.356,0.668-0.712,0.906-1.063c0.239-0.35,0.44-0.755,0.598-1.218
		c0.169,0.079,0.331,0.151,0.49,0.216c0.161,0.062,0.268,0.104,0.325,0.118c0.135,0.034,0.201,0.063,0.201,0.096
		C20.182,208.686,20.122,208.734,20.004,208.796z M21.892,205.154c0.35-0.01,0.66-0.021,0.932-0.037
		c0.271-0.016,0.521-0.037,0.754-0.061v0.957c-0.279-0.041-0.589-0.066-0.933-0.084c-0.343-0.016-0.752-0.029-1.23-0.037v1.196
		c0.46-0.008,0.84-0.02,1.135-0.036c0.293-0.016,0.585-0.039,0.871-0.073v0.993c-0.279-0.039-0.566-0.066-0.866-0.084
		c-0.298-0.016-0.68-0.023-1.14-0.023v2.701c0,0.215-0.016,0.391-0.048,0.532c-0.031,0.138-0.104,0.253-0.214,0.339
		c-0.112,0.088-0.28,0.162-0.503,0.221c-0.223,0.062-0.529,0.123-0.918,0.186c-0.009-0.166-0.041-0.347-0.098-0.537
		c-0.055-0.191-0.163-0.392-0.322-0.598c0.27,0.049,0.487,0.076,0.651,0.083c0.163,0.009,0.287-0.017,0.372-0.078
		c0.082-0.058,0.137-0.161,0.159-0.309c0.026-0.147,0.037-0.353,0.037-0.615v-1.938c-0.525,0.011-0.964,0.021-1.313,0.037
		c-0.352,0.018-0.677,0.045-0.98,0.084v-0.993c0.303,0.043,0.629,0.069,0.98,0.086c0.349,0.016,0.789,0.023,1.313,0.023v-1.196
		c-0.548,0.008-1.029,0.021-1.44,0.037c-0.41,0.018-0.768,0.043-1.069,0.084v-0.957c0.358,0.04,0.796,0.069,1.315,0.09
		c0.517,0.02,1.129,0.027,1.839,0.016c0.135-0.252,0.267-0.521,0.395-0.804c0.128-0.282,0.243-0.572,0.348-0.868
		c0.181,0.121,0.348,0.213,0.494,0.277c0.147,0.064,0.294,0.115,0.436,0.154c0.065,0.017,0.1,0.043,0.108,0.083
		c0.009,0.04-0.036,0.079-0.131,0.119c-0.063,0.033-0.16,0.12-0.293,0.264C22.4,204.531,22.187,204.786,21.892,205.154z
		 M20.709,202.44c-0.057-0.185-0.114-0.363-0.174-0.538c-0.058-0.176-0.122-0.344-0.185-0.502l1.076-0.215
		c0.047,0.205,0.093,0.404,0.138,0.591c0.043,0.188,0.096,0.411,0.161,0.664c0.373-0.017,0.703-0.033,0.986-0.048
		c0.282-0.017,0.54-0.041,0.771-0.073v1.017c-0.304-0.038-0.651-0.072-1.041-0.096c-0.39-0.025-0.869-0.035-1.435-0.035
		s-1.061,0.01-1.487,0.035c-0.427,0.023-0.791,0.058-1.095,0.096v-1.017c0.281,0.041,0.607,0.069,0.981,0.085
		C19.781,202.421,20.214,202.431,20.709,202.44z M19.549,205.02c-0.063-0.277-0.132-0.508-0.209-0.686
		c-0.075-0.181-0.173-0.349-0.292-0.509l0.897-0.346c0.072,0.189,0.15,0.377,0.231,0.561c0.085,0.183,0.194,0.395,0.33,0.635
		L19.549,205.02z M22.62,210.363c-0.15-0.343-0.302-0.63-0.453-0.86c-0.152-0.231-0.331-0.458-0.539-0.682l0.705-0.477
		c0.104,0.126,0.2,0.247,0.293,0.364c0.091,0.115,0.18,0.229,0.268,0.338c0.087,0.112,0.175,0.227,0.262,0.342
		c0.089,0.116,0.185,0.24,0.289,0.377L22.62,210.363z M26.708,205.117c0.216,0,0.405-0.002,0.568-0.006
		c0.163-0.005,0.312-0.012,0.448-0.023c0.135-0.015,0.263-0.029,0.384-0.043c0.118-0.017,0.242-0.04,0.368-0.072v1.124
		c-0.208-0.048-0.397-0.081-0.573-0.1c-0.174-0.022-0.406-0.038-0.693-0.055v4.218c0,0.357,0.006,0.686,0.019,0.98
		c0.011,0.293,0.038,0.601,0.076,0.919h-1.158c0.04-0.335,0.065-0.644,0.078-0.931c0.012-0.287,0.018-0.611,0.018-0.969v-4.218
		h-1.088c-0.016,0.724-0.052,1.376-0.107,1.953c-0.057,0.577-0.142,1.103-0.257,1.576c-0.116,0.476-0.261,0.91-0.435,1.31
		c-0.177,0.398-0.388,0.782-0.634,1.16c-0.072-0.057-0.141-0.105-0.209-0.15c-0.067-0.043-0.142-0.085-0.222-0.119
		c-0.079-0.037-0.171-0.072-0.274-0.108c-0.103-0.036-0.231-0.075-0.381-0.112c0.279-0.287,0.512-0.598,0.704-0.928
		s0.35-0.725,0.479-1.182c0.126-0.459,0.222-1.006,0.286-1.645c0.063-0.637,0.107-1.4,0.13-2.293
		c0.016-0.709,0.014-1.356-0.006-1.943c-0.018-0.586-0.045-1.033-0.077-1.346c0.263,0.018,0.55,0.01,0.86-0.021
		c0.313-0.031,0.624-0.08,0.945-0.145c0.317-0.064,0.63-0.141,0.938-0.23c0.306-0.095,0.58-0.186,0.818-0.281
		c0.034,0.07,0.075,0.153,0.126,0.25c0.051,0.096,0.106,0.188,0.169,0.275c0.058,0.086,0.116,0.169,0.171,0.244
		c0.056,0.074,0.103,0.134,0.144,0.172c0.223,0.216,0.179,0.292-0.131,0.229c-0.064-0.008-0.13-0.016-0.197-0.02
		c-0.067-0.003-0.155,0-0.263,0.007c-0.108,0.009-0.247,0.021-0.413,0.042c-0.167,0.021-0.382,0.045-0.646,0.078
		c-0.223,0.023-0.402,0.043-0.538,0.061c-0.135,0.016-0.253,0.029-0.356,0.041c-0.104,0.012-0.203,0.02-0.294,0.025
		c-0.09,0.004-0.201,0.008-0.329,0.016v2.26H26.708z M31.393,205.666c-0.208,0.018-0.368,0.036-0.484,0.059
		c-0.115,0.025-0.229,0.059-0.34,0.096c-0.086-0.355-0.196-0.688-0.322-0.991c0.159-0.11,0.305-0.237,0.441-0.375
		c0.135-0.141,0.276-0.34,0.424-0.604s0.311-0.606,0.491-1.034s0.396-0.982,0.65-1.666c0.199,0.135,0.396,0.25,0.593,0.353
		c0.194,0.1,0.344,0.168,0.447,0.208c0.112,0.048,0.169,0.096,0.174,0.144c0.003,0.048-0.039,0.089-0.127,0.12
		c-0.023,0.008-0.049,0.022-0.077,0.047c-0.028,0.023-0.068,0.07-0.125,0.139c-0.056,0.066-0.125,0.162-0.208,0.285
		c-0.083,0.123-0.196,0.289-0.334,0.496c-0.14,0.207-0.308,0.463-0.503,0.77c-0.195,0.309-0.428,0.674-0.699,1.094l1.804-0.07
		c0.134-0.199,0.253-0.376,0.352-0.531c0.101-0.155,0.188-0.293,0.258-0.412c0.071-0.121,0.134-0.229,0.186-0.33
		c0.051-0.098,0.096-0.193,0.137-0.279c0.184,0.15,0.355,0.283,0.521,0.4c0.163,0.115,0.299,0.197,0.412,0.244
		c0.095,0.041,0.147,0.082,0.156,0.127c0.005,0.043-0.038,0.075-0.132,0.1c-0.024,0.01-0.095,0.071-0.21,0.191
		c-0.115,0.121-0.294,0.318-0.538,0.592c-0.244,0.275-0.56,0.641-0.944,1.094c-0.387,0.453-0.858,1.015-1.416,1.684
		c0.415-0.016,0.867-0.045,1.361-0.088c0.495-0.045,0.986-0.111,1.473-0.197c-0.048,0.135-0.081,0.281-0.091,0.442
		c-0.013,0.159-0.014,0.306-0.004,0.441l-2.499,0.228c-0.096,0.008-0.204,0.021-0.324,0.041c-0.118,0.021-0.24,0.041-0.364,0.066
		c-0.124,0.023-0.242,0.051-0.359,0.083c-0.115,0.034-0.218,0.06-0.305,0.085c-0.031-0.16-0.076-0.322-0.136-0.484
		c-0.061-0.162-0.125-0.313-0.198-0.449c0.104-0.023,0.232-0.099,0.388-0.225c0.157-0.129,0.329-0.292,0.52-0.491
		c0.192-0.2,0.39-0.427,0.592-0.683c0.203-0.256,0.405-0.525,0.604-0.812L31.393,205.666z M34.812,209.392
		c-0.025,0.066-0.044,0.139-0.055,0.223c-0.013,0.086-0.021,0.175-0.03,0.27c-0.008,0.098-0.013,0.19-0.019,0.28
		c-0.004,0.093-0.001,0.171,0.008,0.233c-0.544,0.104-1.022,0.201-1.436,0.287c-0.416,0.09-0.782,0.171-1.105,0.251
		c-0.322,0.078-0.602,0.157-0.837,0.232c-0.236,0.076-0.443,0.15-0.628,0.222c-0.04-0.19-0.089-0.396-0.149-0.615
		c-0.059-0.219-0.134-0.432-0.222-0.639c0.192-0.01,0.394-0.027,0.61-0.055c0.214-0.028,0.488-0.068,0.819-0.119
		c0.331-0.052,0.737-0.125,1.217-0.215C33.47,209.655,34.078,209.537,34.812,209.392z M36.531,206.55v3.8
		c0,0.126,0.012,0.228,0.036,0.299c0.022,0.071,0.089,0.128,0.197,0.169c0.108,0.038,0.276,0.064,0.508,0.076
		s0.55,0.018,0.957,0.018c0.335,0,0.598-0.011,0.793-0.034c0.196-0.024,0.354-0.091,0.474-0.192c0.12-0.104,0.215-0.259,0.286-0.466
		c0.072-0.208,0.146-0.497,0.227-0.872c0.334,0.334,0.672,0.547,1.016,0.645c-0.119,0.398-0.232,0.717-0.339,0.956
		c-0.109,0.239-0.255,0.425-0.443,0.556c-0.188,0.131-0.438,0.217-0.753,0.257c-0.314,0.04-0.735,0.06-1.26,0.06
		c-0.59,0-1.061-0.012-1.413-0.033c-0.35-0.026-0.617-0.076-0.806-0.152c-0.187-0.076-0.31-0.183-0.371-0.322
		c-0.06-0.139-0.09-0.324-0.09-0.555v-4.148c0-0.262-0.002-0.466-0.011-0.608c-0.009-0.144-0.024-0.282-0.048-0.417
		c0.089,0.017,0.177,0.023,0.269,0.027c0.092,0.004,0.207,0.011,0.347,0.02c0.139,0.007,0.312,0.012,0.521,0.012
		c0.206,0,0.473,0,0.799,0h1.578v-2.819h-1.673c-0.391,0-0.755,0.013-1.094,0.042c-0.339,0.027-0.606,0.064-0.807,0.111v-1.146
		c0.2,0.031,0.489,0.053,0.867,0.066c0.379,0.01,0.87,0.017,1.477,0.017c0.589,0,1.058-0.007,1.404-0.017
		c0.345-0.014,0.623-0.035,0.831-0.066c-0.016,0.16-0.027,0.313-0.03,0.461c-0.003,0.147-0.005,0.325-0.005,0.532v2.558
		c0,0.176,0,0.333,0,0.477s0.003,0.283,0.012,0.419c0.007,0.134,0.014,0.271,0.017,0.405c0.005,0.139,0.014,0.286,0.03,0.454h-1.027
		v-0.585H36.531z M47.011,205.74c0.017,0.857-0.034,1.592-0.156,2.203c-0.118,0.61-0.311,1.143-0.572,1.6
		c-0.262,0.461-0.605,0.873-1.027,1.244c-0.422,0.37-0.929,0.746-1.517,1.13c-0.111-0.2-0.251-0.386-0.414-0.556
		c-0.163-0.172-0.34-0.314-0.532-0.425c0.614-0.245,1.124-0.517,1.529-0.807c0.406-0.292,0.732-0.636,0.974-1.033
		c0.244-0.397,0.413-0.868,0.508-1.411c0.095-0.541,0.135-1.19,0.12-1.945c-0.565,0-1.106,0.006-1.62,0.016
		c-0.514,0.012-0.918,0.035-1.213,0.064v-1.086c0.176,0.016,0.391,0.027,0.647,0.035c0.255,0.008,0.568,0.017,0.943,0.025
		c0.375,0.008,0.816,0.013,1.327,0.016c0.509,0.004,1.106,0.008,1.792,0.008c0.686,0,1.285-0.004,1.799-0.008
		c0.513-0.003,0.959-0.008,1.338-0.016c0.377-0.009,0.694-0.018,0.948-0.025c0.256-0.008,0.468-0.02,0.635-0.035v1.086
		c-0.152-0.007-0.339-0.016-0.562-0.027c-0.223-0.014-0.468-0.023-0.735-0.031c-0.267-0.007-0.548-0.014-0.841-0.016
		c-0.297-0.004-0.588-0.006-0.874-0.006v4.05c0,0.126,0.011,0.229,0.037,0.304c0.023,0.076,0.077,0.133,0.161,0.169
		c0.083,0.035,0.205,0.057,0.364,0.064c0.16,0.009,0.375,0.013,0.645,0.013c0.271,0,0.493-0.021,0.665-0.061
		c0.17-0.038,0.309-0.119,0.418-0.238c0.107-0.121,0.197-0.289,0.269-0.51c0.071-0.218,0.145-0.508,0.215-0.863
		c0.167,0.206,0.331,0.357,0.495,0.458c0.163,0.1,0.348,0.171,0.555,0.209c-0.127,0.455-0.251,0.813-0.375,1.075
		c-0.124,0.263-0.279,0.465-0.467,0.604c-0.188,0.141-0.426,0.228-0.716,0.269c-0.291,0.038-0.669,0.06-1.131,0.06
		c-0.478,0-0.862-0.017-1.154-0.054c-0.29-0.036-0.512-0.102-0.667-0.198c-0.157-0.095-0.257-0.22-0.304-0.377
		c-0.051-0.153-0.072-0.351-0.072-0.589v-4.385H47.011z M51.446,202.881c-0.398-0.032-0.917-0.054-1.555-0.071
		c-0.639-0.016-1.33-0.023-2.079-0.023c-0.75,0-1.442,0.008-2.079,0.023c-0.638,0.018-1.159,0.039-1.564,0.071v-1.136
		c0.413,0.041,0.931,0.068,1.553,0.084c0.621,0.016,1.306,0.024,2.055,0.024c0.742,0,1.435-0.009,2.085-0.024
		c0.649-0.016,1.177-0.043,1.584-0.084V202.881z M56.849,204.542c-0.368,0.006-0.683,0.021-0.946,0.036
		c-0.263,0.015-0.497,0.043-0.704,0.083v-1.086c0.207,0.039,0.441,0.064,0.704,0.076c0.264,0.013,0.579,0.018,0.946,0.018
		c0-0.382-0.003-0.697-0.007-0.949c-0.004-0.252-0.011-0.466-0.018-0.646c-0.007-0.179-0.019-0.337-0.037-0.472
		c-0.017-0.137-0.036-0.271-0.06-0.406c0.216,0.031,0.422,0.054,0.623,0.064c0.198,0.013,0.365,0.011,0.5-0.006
		c0.207-0.017,0.323,0.01,0.342,0.072c0.02,0.062-0.034,0.148-0.162,0.252c-0.087,0.062-0.145,0.129-0.173,0.196
		c-0.028,0.067-0.041,0.154-0.041,0.259v1.623c0.414-0.008,0.76-0.035,1.04-0.082v1.074c-0.152-0.023-0.31-0.043-0.474-0.061
		c-0.162-0.015-0.352-0.025-0.566-0.035v2.02c0.206-0.064,0.412-0.129,0.615-0.195c0.204-0.069,0.407-0.141,0.614-0.224
		c-0.015,0.185-0.017,0.351-0.005,0.503c0.012,0.15,0.046,0.303,0.102,0.454c-0.453,0.111-0.897,0.235-1.326,0.372v3.286
		c0,0.183-0.019,0.33-0.056,0.44c-0.034,0.11-0.119,0.207-0.249,0.286c-0.132,0.081-0.328,0.152-0.586,0.216
		c-0.259,0.064-0.612,0.136-1.059,0.215c-0.111-0.439-0.307-0.857-0.585-1.255c0.559,0.062,0.959,0.062,1.201,0
		c0.242-0.063,0.366-0.175,0.366-0.333v-2.51c-0.24,0.095-0.484,0.196-0.73,0.305c-0.248,0.107-0.502,0.227-0.765,0.363
		c-0.024-0.184-0.058-0.391-0.101-0.626c-0.044-0.235-0.094-0.44-0.151-0.616c0.303-0.065,0.599-0.127,0.886-0.19
		c0.285-0.064,0.573-0.134,0.861-0.205V204.542z M60.052,206.382c-0.121,0.016-0.24,0.027-0.361,0.029
		c-0.119,0.004-0.234,0.014-0.346,0.031v-1.026c0.144,0.015,0.321,0.028,0.531,0.041c0.212,0.012,0.436,0.021,0.671,0.022
		c0.233,0.006,0.467,0.011,0.699,0.02c0.231,0.008,0.438,0.012,0.621,0.012v-1.782c-0.525,0.01-1.011,0.019-1.458,0.031
		c-0.446,0.011-0.837,0.034-1.171,0.065v-1.064c0.334,0.025,0.726,0.044,1.171,0.062c0.447,0.016,0.933,0.026,1.458,0.034
		c-0.006-0.342-0.021-0.666-0.042-0.975c-0.021-0.305-0.045-0.539-0.078-0.697c0.223,0.04,0.428,0.065,0.616,0.076
		c0.188,0.013,0.384,0.02,0.593,0.02c0.261,0,0.279,0.07,0.047,0.215c-0.056,0.031-0.093,0.082-0.109,0.149
		c-0.015,0.068-0.024,0.151-0.024,0.257v0.955c0.328,0,0.62-0.001,0.879-0.008c0.259-0.002,0.496-0.008,0.711-0.016
		c0.216-0.006,0.417-0.018,0.604-0.029c0.188-0.013,0.368-0.025,0.543-0.043v1.064c-0.182-0.016-0.369-0.029-0.554-0.042
		c-0.188-0.013-0.389-0.021-0.604-0.03c-0.215-0.01-0.451-0.014-0.706-0.018c-0.253-0.005-0.544-0.007-0.873-0.007v1.782
		c0.422-0.009,0.807-0.023,1.155-0.047c0.346-0.026,0.671-0.052,0.973-0.084c-0.137,0.469-0.274,0.896-0.418,1.277
		c-0.144,0.381-0.302,0.736-0.473,1.062c-0.171,0.327-0.361,0.637-0.567,0.928c-0.207,0.291-0.439,0.579-0.693,0.867
		c0.414,0.277,0.886,0.52,1.416,0.715c0.529,0.199,1.117,0.348,1.763,0.442c-0.136,0.184-0.257,0.392-0.363,0.622
		c-0.109,0.23-0.194,0.446-0.259,0.646c-0.692-0.184-1.3-0.434-1.82-0.748c-0.523-0.315-0.999-0.646-1.428-0.998
		c-0.167,0.145-0.36,0.297-0.58,0.454c-0.22,0.159-0.45,0.318-0.693,0.479c-0.242,0.158-0.491,0.316-0.741,0.471
		c-0.251,0.154-0.492,0.296-0.722,0.424c-0.088-0.158-0.208-0.317-0.366-0.473c-0.155-0.154-0.339-0.279-0.555-0.375
		c0.548-0.161,1.077-0.373,1.584-0.639c0.505-0.268,0.964-0.609,1.379-1.021c-0.255-0.328-0.51-0.762-0.765-1.304
		C60.439,207.669,60.227,207.06,60.052,206.382z M61.042,206.359c0.127,0.572,0.3,1.064,0.514,1.475
		c0.215,0.411,0.419,0.753,0.608,1.023c0.343-0.406,0.653-0.819,0.928-1.237c0.273-0.418,0.454-0.839,0.543-1.261H61.042z
		 M68.655,202.535c-0.113,0.01-0.225,0.02-0.34,0.031c-0.116,0.012-0.247,0.028-0.39,0.053v-1.004
		c0.137,0.016,0.272,0.03,0.407,0.041c0.135,0.015,0.296,0.023,0.478,0.031c0.183,0.008,0.403,0.014,0.658,0.017
		c0.255,0.005,0.573,0.007,0.955,0.007c0.384,0,0.707-0.002,0.969-0.007c0.263-0.003,0.488-0.009,0.67-0.017
		c0.183-0.008,0.34-0.017,0.471-0.031c0.132-0.011,0.262-0.025,0.388-0.041v1.004c-0.151-0.024-0.292-0.041-0.423-0.053
		s-0.258-0.021-0.376-0.031v6.118c0.223-0.038,0.397-0.075,0.525-0.106s0.247-0.072,0.359-0.119l-0.023,0.896
		c-0.065,0-0.164,0.011-0.299,0.035c-0.136,0.023-0.324,0.057-0.562,0.107c0,0.159,0,0.35,0,0.574c0,0.224,0,0.451,0.006,0.688
		c0.002,0.232,0.011,0.465,0.022,0.691c0.012,0.229,0.027,0.424,0.043,0.592h-0.97c0.008-0.158,0.017-0.342,0.025-0.55
		c0.007-0.206,0.013-0.421,0.018-0.639c0.002-0.219,0.008-0.433,0.01-0.639c0.004-0.209,0.009-0.395,0.009-0.562
		c-0.472,0.088-0.867,0.163-1.191,0.226c-0.322,0.066-0.601,0.128-0.835,0.188c-0.236,0.059-0.442,0.119-0.623,0.178
		c-0.178,0.062-0.352,0.127-0.52,0.197l-0.323-1.242c0.128,0.008,0.249,0.008,0.366,0c0.114-0.009,0.281-0.028,0.495-0.061V202.535z
		 M69.505,202.523v1.707h1.781v-1.707H69.505z M71.286,204.972h-1.781v1.686h1.781V204.972z M71.286,207.399h-1.781V209l1.781-0.24
		V207.399z M75.275,208.927c0.192,0.051,0.188,0.132-0.012,0.252c-0.031,0.025-0.087,0.082-0.166,0.18
		c-0.081,0.096-0.198,0.248-0.359,0.459c-0.159,0.214-0.364,0.491-0.616,0.838c-0.252,0.346-0.558,0.777-0.925,1.295
		c-0.096-0.126-0.226-0.238-0.39-0.333c-0.163-0.098-0.328-0.159-0.496-0.192c0.224-0.199,0.438-0.424,0.641-0.677
		c0.203-0.249,0.394-0.508,0.575-0.78c0.177-0.271,0.341-0.547,0.488-0.818c0.148-0.276,0.269-0.535,0.366-0.784
		c0.055,0.058,0.124,0.114,0.209,0.173c0.083,0.061,0.168,0.119,0.257,0.176c0.087,0.055,0.168,0.104,0.245,0.143
		C75.166,208.897,75.228,208.92,75.275,208.927z M77.762,207.673c-0.185-0.023-0.343-0.041-0.472-0.054
		c-0.133-0.013-0.27-0.019-0.415-0.022c-0.142-0.004-0.306-0.008-0.49-0.014c-0.182-0.004-0.413-0.004-0.692-0.004
		c-0.31,0-0.571,0-0.782,0.004c-0.212,0.006-0.398,0.011-0.562,0.02c-0.164,0.006-0.315,0.017-0.455,0.029
		c-0.138,0.012-0.296,0.03-0.471,0.053c0.039-0.445,0.069-0.914,0.089-1.402c0.02-0.49,0.029-0.999,0.029-1.525
		c0-0.262-0.001-0.535-0.005-0.819c-0.004-0.282-0.011-0.562-0.024-0.835c-0.012-0.275-0.023-0.54-0.035-0.796
		c-0.013-0.255-0.032-0.486-0.054-0.692c0.191,0.023,0.364,0.045,0.519,0.061c0.156,0.015,0.317,0.027,0.484,0.035
		c0.167,0.008,0.354,0.014,0.562,0.018c0.207,0.004,0.455,0.006,0.742,0.006c0.239,0,0.442-0.002,0.615-0.006
		c0.172-0.004,0.33-0.01,0.478-0.024c0.148-0.009,0.293-0.023,0.443-0.033c0.146-0.015,0.312-0.032,0.496-0.056
		c-0.018,0.176-0.028,0.385-0.037,0.627c-0.006,0.244-0.015,0.505-0.023,0.783c-0.009,0.279-0.015,0.562-0.02,0.849
		c-0.003,0.287-0.005,0.556-0.005,0.812c0,0.544,0.008,1.082,0.025,1.621C77.719,206.843,77.736,207.298,77.762,207.673z
		 M76.782,202.535h-2.343v4.255h2.343V202.535z M77.749,211.666c-0.089-0.215-0.205-0.461-0.353-0.741s-0.3-0.554-0.459-0.826
		c-0.16-0.269-0.315-0.519-0.466-0.745c-0.151-0.228-0.278-0.4-0.382-0.521l0.764-0.515c0.344,0.511,0.665,0.979,0.964,1.4
		c0.298,0.422,0.605,0.848,0.924,1.277L77.749,211.666z M87.346,209.287c-0.406-0.031-0.898-0.058-1.476-0.076
		c-0.577-0.021-1.241-0.031-1.99-0.031c-0.748,0-1.395,0.008-1.936,0.025c-0.542,0.016-1.019,0.043-1.434,0.082v-1.123
		c0.406,0.039,0.882,0.066,1.429,0.078c0.545,0.012,1.193,0.018,1.941,0.018c0.749,0,1.413-0.013,1.99-0.036
		c0.578-0.024,1.069-0.055,1.476-0.096V209.287z M83.2,203.682c-0.017,0.304-0.03,0.614-0.042,0.933s-0.023,0.639-0.03,0.955h3.644
		c1.26,0,2.219-0.049,2.88-0.143c-0.017,0.238-0.037,0.506-0.06,0.799c-0.024,0.297-0.05,0.61-0.078,0.947
		c-0.028,0.334-0.06,0.682-0.094,1.042c-0.037,0.364-0.07,0.726-0.102,1.085c-0.057,0.539-0.119,0.974-0.185,1.295
		c-0.068,0.322-0.192,0.573-0.371,0.759c-0.179,0.183-0.44,0.317-0.782,0.399c-0.344,0.084-0.812,0.163-1.41,0.234
		c-0.033-0.186-0.089-0.389-0.173-0.609c-0.083-0.223-0.193-0.426-0.328-0.608c0.351,0.03,0.649,0.052,0.896,0.06
		c0.247,0.007,0.454-0.027,0.621-0.102c0.168-0.076,0.303-0.205,0.407-0.378c0.103-0.175,0.188-0.429,0.252-0.757
		c0.062-0.332,0.113-0.756,0.148-1.269c0.037-0.515,0.071-1.142,0.103-1.882h-3.443c-0.462,0-0.959,0.012-1.488,0.035
		s-1.038,0.062-1.524,0.109c0.024-0.145,0.047-0.354,0.066-0.629c0.021-0.275,0.039-0.582,0.055-0.919
		c0.015-0.339,0.027-0.696,0.034-1.07c0.008-0.376,0.013-0.736,0.013-1.088s-0.005-0.673-0.013-0.969
		c-0.007-0.294-0.023-0.531-0.047-0.716c0.064,0.023,0.153,0.047,0.268,0.064c0.116,0.021,0.238,0.037,0.366,0.054
		c0.127,0.017,0.253,0.028,0.377,0.036c0.123,0.009,0.225,0.009,0.304,0c0.087-0.008,0.136,0.007,0.148,0.043
		c0.013,0.035-0.026,0.106-0.112,0.209c-0.039,0.039-0.074,0.146-0.102,0.318c-0.028,0.17-0.065,0.467-0.113,0.889h3.191
		c0.812,0,1.501-0.012,2.062-0.029c0.562-0.021,1.046-0.051,1.453-0.09v1.109c-0.359-0.029-0.832-0.059-1.417-0.082
		c-0.585-0.024-1.286-0.036-2.098-0.036H83.2z M93.31,204.603c-0.294,0-0.557,0.006-0.789,0.017c-0.23,0.014-0.43,0.026-0.597,0.042
		v-0.943c0.175,0.016,0.377,0.029,0.604,0.042c0.227,0.011,0.488,0.019,0.782,0.019c0-0.646-0.011-1.178-0.028-1.596
		c-0.021-0.418-0.048-0.717-0.081-0.892c0.177,0.023,0.363,0.045,0.562,0.06c0.2,0.016,0.368,0.021,0.502,0.011
		c0.177-0.007,0.273,0.011,0.292,0.056c0.021,0.045-0.029,0.121-0.149,0.234c-0.103,0.094-0.154,0.246-0.154,0.451v1.676
		c0.238-0.008,0.456-0.017,0.652-0.025c0.194-0.01,0.367-0.02,0.52-0.035v0.943c-0.152-0.016-0.326-0.027-0.52-0.035
		c-0.196-0.007-0.414-0.016-0.652-0.023v2.055c0.198-0.08,0.384-0.156,0.554-0.229c0.171-0.07,0.325-0.139,0.46-0.203
		c-0.015,0.152-0.018,0.305-0.005,0.455c0.012,0.152,0.038,0.286,0.076,0.407c-0.183,0.064-0.362,0.128-0.543,0.197
		c-0.179,0.067-0.36,0.138-0.542,0.209v3.106c0,0.217-0.021,0.387-0.06,0.514c-0.04,0.127-0.122,0.232-0.245,0.311
		c-0.124,0.08-0.301,0.146-0.533,0.197c-0.23,0.055-0.538,0.106-0.919,0.164c-0.033-0.188-0.08-0.361-0.144-0.529
		c-0.063-0.167-0.176-0.361-0.334-0.585c0.501,0.056,0.843,0.036,1.022-0.063c0.178-0.1,0.268-0.29,0.268-0.568V207.9
		c-0.231,0.111-0.451,0.226-0.664,0.336c-0.211,0.11-0.417,0.231-0.615,0.359c-0.033-0.208-0.074-0.413-0.126-0.617
		c-0.052-0.204-0.101-0.395-0.148-0.579c0.23-0.05,0.477-0.106,0.74-0.179s0.534-0.151,0.812-0.241V204.603z M97.194,211.87h-1.028
		c0.022-0.179,0.044-0.35,0.059-0.521c0.016-0.173,0.031-0.357,0.042-0.558c0.013-0.198,0.021-0.418,0.023-0.655
		c0.004-0.242,0.006-0.52,0.006-0.836v-4.1c-0.087,0.159-0.178,0.312-0.268,0.458c-0.092,0.147-0.185,0.29-0.281,0.426
		c-0.231-0.231-0.505-0.396-0.825-0.491c0.295-0.293,0.546-0.605,0.757-0.932c0.212-0.327,0.414-0.732,0.605-1.22
		c0.07-0.196,0.135-0.388,0.197-0.567c0.058-0.18,0.11-0.358,0.154-0.537c0.043-0.178,0.084-0.361,0.125-0.549
		c0.04-0.187,0.08-0.398,0.12-0.628c0.184,0.071,0.376,0.145,0.58,0.221c0.205,0.076,0.372,0.123,0.508,0.138
		c0.294,0.023,0.302,0.137,0.023,0.335c-0.04,0.022-0.077,0.057-0.114,0.101c-0.036,0.045-0.08,0.117-0.131,0.215
		c-0.052,0.102-0.117,0.235-0.197,0.408c-0.08,0.169-0.184,0.398-0.311,0.686h2.199c0.503,0,0.909,0,1.221-0.004
		c0.31-0.007,0.558-0.01,0.747-0.012c0.186-0.004,0.33-0.01,0.43-0.02c0.098-0.008,0.188-0.017,0.268-0.023v0.967
		c-0.08-0.008-0.163-0.015-0.25-0.023c-0.089-0.008-0.209-0.014-0.365-0.018c-0.156-0.004-0.358-0.007-0.61-0.007
		c-0.25,0-0.58,0-0.985,0v1.364c0.326,0,0.594-0.002,0.799-0.008c0.207-0.002,0.377-0.006,0.508-0.011
		c0.132-0.003,0.237-0.01,0.317-0.019c0.081-0.008,0.154-0.015,0.227-0.023v0.967c-0.073-0.008-0.15-0.016-0.232-0.022
		c-0.083-0.009-0.193-0.015-0.323-0.017c-0.131-0.005-0.299-0.01-0.502-0.015c-0.204-0.003-0.468-0.005-0.794-0.005v1.481
		c0.334,0,0.604-0.002,0.812-0.007c0.207-0.002,0.377-0.008,0.512-0.01c0.137-0.005,0.244-0.012,0.323-0.02
		c0.082-0.009,0.155-0.016,0.227-0.023v0.957c-0.072-0.01-0.147-0.016-0.233-0.025c-0.083-0.008-0.191-0.013-0.321-0.018
		c-0.131-0.004-0.301-0.004-0.508-0.004c-0.208,0-0.478,0-0.812,0v1.396c0.453,0,0.825-0.004,1.116-0.006
		c0.291-0.005,0.526-0.008,0.706-0.012c0.178-0.004,0.32-0.01,0.423-0.02c0.104-0.007,0.196-0.019,0.275-0.035v0.98
		c-0.088-0.01-0.182-0.017-0.288-0.024c-0.104-0.009-0.249-0.017-0.435-0.023c-0.188-0.01-0.431-0.013-0.729-0.013
		c-0.298,0-0.687,0-1.164,0h-2.606V211.87z M97.194,205.488h1.746v-1.364h-1.746V205.488z M97.194,207.817h1.746v-1.481h-1.746
		V207.817z M97.194,210.064h1.746v-1.396h-1.746V210.064z M99.43,203.012c-0.088-0.222-0.207-0.444-0.353-0.669
		c-0.148-0.222-0.313-0.439-0.498-0.645l0.932-0.549c0.112,0.182,0.247,0.387,0.406,0.615c0.16,0.227,0.331,0.455,0.515,0.686
		L99.43,203.012z M114.928,203.85c-0.145-0.024-0.318-0.043-0.525-0.054c-0.208-0.013-0.486-0.025-0.836-0.036
		c-0.352-0.013-0.789-0.021-1.315-0.024c-0.525-0.005-1.18-0.007-1.96-0.007h-3.501c0.024,0.798,0.033,1.513,0.024,2.146
		c-0.009,0.632-0.032,1.205-0.072,1.716c-0.041,0.508-0.097,0.969-0.167,1.381c-0.073,0.407-0.162,0.793-0.269,1.152
		c-0.108,0.356-0.23,0.702-0.37,1.032c-0.142,0.33-0.298,0.668-0.474,1.011c-0.127-0.09-0.242-0.164-0.345-0.227
		c-0.105-0.067-0.204-0.116-0.3-0.154c-0.096-0.043-0.195-0.076-0.298-0.104c-0.104-0.029-0.214-0.053-0.334-0.077
		c0.207-0.272,0.394-0.546,0.561-0.825c0.168-0.278,0.312-0.588,0.431-0.927c0.12-0.337,0.217-0.717,0.299-1.14
		c0.077-0.424,0.138-0.919,0.178-1.488c0.041-0.57,0.061-1.226,0.061-1.967c0-0.74-0.02-1.597-0.061-2.568
		c0.184,0.023,0.388,0.043,0.612,0.051c0.222,0.016,0.505,0.025,0.848,0.033c0.342,0.007,0.768,0.014,1.271,0.017
		c0.508,0.005,1.143,0.007,1.907,0.007c0.771,0,1.424-0.002,1.954-0.007c0.53-0.003,0.967-0.01,1.314-0.017
		c0.347-0.008,0.625-0.02,0.837-0.037c0.211-0.016,0.387-0.032,0.532-0.047V203.85z M109.767,202.702
		c-0.088-0.262-0.18-0.511-0.275-0.739c-0.095-0.232-0.207-0.458-0.333-0.682l1.17-0.406c0.086,0.222,0.187,0.457,0.298,0.705
		c0.11,0.248,0.24,0.497,0.382,0.751L109.767,202.702z M119.529,203.324c-0.397,0-0.735,0.012-1.011,0.03
		c-0.274,0.019-0.522,0.05-0.746,0.088v-1.002c0.223,0.038,0.472,0.069,0.746,0.089c0.275,0.021,0.613,0.03,1.011,0.03
		c0-0.296-0.007-0.579-0.022-0.855c-0.016-0.274-0.032-0.476-0.049-0.603c0.327,0.072,0.677,0.115,1.052,0.131
		c0.088,0,0.139,0.027,0.154,0.078c0.016,0.052-0.023,0.119-0.118,0.197c-0.063,0.055-0.111,0.121-0.145,0.191
		c-0.032,0.07-0.047,0.143-0.047,0.214v0.646c0.143,0,0.269-0.005,0.376-0.013c0.108-0.007,0.205-0.017,0.293-0.023
		c0.088-0.008,0.167-0.017,0.245-0.03c0.076-0.011,0.157-0.024,0.244-0.042v0.98c-0.175-0.029-0.337-0.057-0.489-0.072
		c-0.152-0.015-0.375-0.023-0.669-0.023v1.219h0.286c0.216-0.23,0.408-0.451,0.574-0.662c0.166-0.213,0.319-0.42,0.454-0.629
		c0.135-0.206,0.256-0.417,0.364-0.633c0.108-0.214,0.205-0.441,0.292-0.682c0.129,0.096,0.253,0.178,0.372,0.247
		c0.119,0.066,0.255,0.128,0.406,0.183c0.087,0.033,0.135,0.076,0.142,0.133c0.009,0.057-0.022,0.092-0.095,0.107
		c-0.055,0.016-0.119,0.059-0.189,0.133c-0.072,0.071-0.177,0.209-0.311,0.416c-0.08,0.13-0.153,0.243-0.215,0.34
		c-0.063,0.101-0.133,0.2-0.204,0.3c-0.071,0.101-0.156,0.208-0.252,0.323c-0.095,0.115-0.211,0.254-0.345,0.412
		c0.215-0.008,0.402-0.02,0.561-0.037c0.161-0.014,0.327-0.038,0.502-0.07v0.945c-0.127-0.025-0.25-0.043-0.366-0.056
		c-0.114-0.011-0.235-0.021-0.363-0.03c-0.126-0.008-0.27-0.015-0.423-0.022c-0.158-0.007-0.339-0.013-0.544-0.013
		c-0.183,0.208-0.377,0.408-0.581,0.604c-0.203,0.196-0.412,0.389-0.627,0.579c0.613,0,1.091-0.008,1.435-0.018
		c0.341-0.014,0.625-0.031,0.847-0.054v0.764c-0.125,0.079-0.238,0.15-0.333,0.214c-0.096,0.064-0.202,0.141-0.322,0.23
		l-0.694,0.501v0.515c0.281-0.057,0.582-0.117,0.903-0.18c0.322-0.064,0.674-0.143,1.058-0.229c-0.032,0.168-0.052,0.314-0.06,0.442
		c-0.009,0.128-0.004,0.259,0.012,0.394c-0.383,0.064-0.731,0.123-1.045,0.174c-0.315,0.052-0.604,0.104-0.868,0.15v1.35
		c0,0.189-0.011,0.344-0.034,0.453c-0.026,0.111-0.092,0.207-0.204,0.281c-0.114,0.076-0.288,0.145-0.526,0.203
		c-0.238,0.062-0.573,0.135-1.004,0.223c-0.023-0.174-0.061-0.35-0.114-0.521c-0.05-0.169-0.121-0.356-0.208-0.555
		c0.478,0.023,0.804,0.009,0.979-0.042c0.175-0.052,0.263-0.149,0.263-0.292v-0.944c-0.28,0.048-0.533,0.095-0.76,0.142
		c-0.226,0.051-0.439,0.094-0.639,0.132c-0.199,0.04-0.393,0.083-0.58,0.125c-0.188,0.046-0.38,0.091-0.579,0.14
		c-0.041-0.153-0.087-0.314-0.138-0.484c-0.052-0.172-0.121-0.352-0.21-0.543c0.391,0.008,0.812-0.007,1.261-0.041
		c0.45-0.037,0.999-0.113,1.644-0.223v-0.933l0.968-0.657c-0.477-0.007-0.866-0.012-1.164-0.012s-0.553,0.005-0.76,0.012
		c-0.519,0.404-1.032,0.77-1.542,1.087c-0.088-0.134-0.187-0.257-0.299-0.364c-0.112-0.108-0.239-0.197-0.382-0.27
		c0.294-0.15,0.566-0.295,0.806-0.436c0.244-0.139,0.477-0.281,0.7-0.424v-0.371c0.161,0.016,0.318,0.027,0.479,0.037
		c0.23-0.167,0.45-0.345,0.656-0.532c0.209-0.188,0.423-0.396,0.647-0.628c-0.655,0-1.225,0.011-1.715,0.031
		c-0.491,0.02-0.915,0.051-1.273,0.101v-0.968c0.158,0.016,0.32,0.031,0.484,0.049c0.162,0.015,0.341,0.027,0.536,0.04
		c0.195,0.013,0.416,0.022,0.657,0.03c0.244,0.006,0.529,0.012,0.855,0.012V203.324z M124.788,209.919
		c-0.36,0.431-0.75,0.812-1.177,1.146c-0.425,0.336-0.902,0.64-1.427,0.91c-0.094-0.143-0.218-0.287-0.367-0.432
		c-0.147-0.143-0.304-0.271-0.47-0.381c0.628-0.216,1.181-0.488,1.654-0.82c0.476-0.33,0.899-0.73,1.274-1.202
		c-0.24-0.442-0.44-0.939-0.6-1.485c-0.157-0.544-0.261-1.054-0.31-1.524c-0.063,0.121-0.127,0.226-0.189,0.318
		c-0.064,0.09-0.127,0.181-0.192,0.269c-0.095-0.16-0.192-0.283-0.287-0.363c-0.095-0.086-0.21-0.156-0.346-0.212
		c0.398-0.526,0.771-1.203,1.118-2.036c0.345-0.834,0.658-1.819,0.938-2.957c0.39,0.127,0.749,0.205,1.075,0.238
		c0.137,0.017,0.206,0.049,0.21,0.095c0.003,0.05-0.061,0.103-0.197,0.169c-0.032,0.015-0.065,0.051-0.103,0.106
		c-0.034,0.056-0.087,0.152-0.155,0.286c-0.066,0.137-0.15,0.327-0.251,0.574c-0.099,0.248-0.225,0.569-0.376,0.968
		c0.55,0,0.999,0,1.345,0s0.625-0.001,0.837-0.005c0.211-0.005,0.37-0.012,0.478-0.027c0.108-0.008,0.196-0.027,0.268-0.049v0.906
		c-0.159-0.016-0.315-0.025-0.471-0.029c-0.156-0.005-0.372-0.006-0.65-0.006c-0.041,0.628-0.092,1.186-0.156,1.672
		c-0.064,0.484-0.143,0.919-0.233,1.301c-0.092,0.383-0.194,0.721-0.311,1.01c-0.116,0.294-0.246,0.56-0.387,0.795
		c0.174,0.215,0.34,0.401,0.495,0.551c0.154,0.151,0.318,0.285,0.489,0.401c0.172,0.116,0.355,0.221,0.55,0.315
		c0.196,0.096,0.422,0.197,0.675,0.299c-0.189,0.201-0.346,0.383-0.465,0.551c-0.119,0.166-0.239,0.363-0.359,0.586
		c-0.382-0.296-0.729-0.6-1.04-0.914C125.362,210.627,125.067,210.289,124.788,209.919z M124.776,208.378
		c0.198-0.406,0.356-0.935,0.471-1.584c0.117-0.648,0.185-1.456,0.21-2.418h-1.158c-0.224,0.52-0.515,1.062-0.873,1.637l0.669-0.048
		c0.04,0.501,0.118,0.949,0.232,1.344C124.442,207.703,124.592,208.061,124.776,208.378z M136.943,204.399
		c-0.161-0.11-0.319-0.221-0.48-0.328c-0.157-0.109-0.322-0.21-0.489-0.304l0.608-0.515c0.399,0.214,0.819,0.477,1.261,0.788
		c0.443,0.311,0.839,0.613,1.189,0.909l-0.789,0.716c-0.095-0.109-0.191-0.221-0.287-0.328c-0.095-0.108-0.195-0.215-0.299-0.317
		l-5.247,0.347c-0.191,0.018-0.356,0.029-0.496,0.037c-0.138,0.009-0.268,0.02-0.381,0.034c-0.117,0.017-0.225,0.038-0.329,0.062
		c-0.104,0.021-0.215,0.051-0.334,0.084c-0.032-0.297-0.116-0.6-0.252-0.908c0.082-0.018,0.168-0.041,0.264-0.072
		c0.095-0.033,0.19-0.068,0.288-0.107c0.094-0.041,0.181-0.08,0.262-0.119c0.08-0.042,0.142-0.076,0.191-0.109
		c0.238-0.174,0.462-0.354,0.668-0.538c0.207-0.183,0.378-0.354,0.514-0.515c-1.426,0.01-2.593,0.047-3.502,0.109v-1.04
		c0.599,0.04,1.299,0.071,2.104,0.09c0.804,0.02,1.747,0.03,2.821,0.03c-0.064-0.208-0.136-0.402-0.215-0.58
		c-0.08-0.179-0.164-0.341-0.25-0.482l1.218-0.262c0.143,0.469,0.299,0.91,0.465,1.324c0.941-0.008,1.778-0.02,2.511-0.035
		c0.734-0.018,1.366-0.045,1.9-0.085v1.04c-0.358-0.023-0.737-0.043-1.134-0.061c-0.4-0.014-0.849-0.025-1.346-0.035
		c-0.499-0.008-1.065-0.014-1.697-0.017c-0.633-0.005-1.364-0.007-2.192-0.007c0.175,0.119,0.322,0.189,0.443,0.214
		c0.11,0.033,0.167,0.071,0.171,0.118c0.004,0.05-0.061,0.095-0.197,0.133c-0.039,0.017-0.085,0.037-0.138,0.06
		c-0.05,0.024-0.132,0.069-0.237,0.138c-0.108,0.069-0.25,0.161-0.426,0.281c-0.174,0.119-0.409,0.281-0.705,0.49L136.943,204.399z
		 M132.067,211.736h-1.101c0.071-0.646,0.107-1.215,0.107-1.709v-3.131c0-0.205-0.004-0.395-0.013-0.561
		c-0.006-0.166-0.019-0.299-0.034-0.394c0.151,0.007,0.31,0.013,0.478,0.017c0.167,0.002,0.38,0.009,0.644,0.014
		c0.264,0.002,0.589,0.005,0.98,0.005c0.39,0,0.89,0,1.494,0c0.638,0,1.156,0,1.554,0c0.399,0,0.725-0.003,0.98-0.005
		c0.256-0.005,0.456-0.012,0.609-0.014c0.151-0.004,0.298-0.01,0.443-0.017c-0.018,0.095-0.028,0.228-0.03,0.394
		c-0.006,0.166-0.006,0.355-0.006,0.561v3.742c0,0.254-0.017,0.459-0.048,0.609c-0.032,0.15-0.113,0.272-0.245,0.363
		c-0.131,0.09-0.331,0.161-0.598,0.209c-0.267,0.05-0.639,0.092-1.115,0.131c-0.025-0.158-0.075-0.34-0.151-0.549
		c-0.076-0.207-0.177-0.402-0.304-0.584c0.343,0.023,0.611,0.033,0.807,0.029c0.196-0.006,0.342-0.032,0.443-0.084
		c0.1-0.053,0.161-0.136,0.185-0.246c0.024-0.109,0.036-0.257,0.036-0.442h-5.113V211.736z M137.181,206.777h-5.113v0.861h5.113
		V206.777z M137.181,208.378h-5.113v0.898h5.113V208.378z M146.275,209.059c-0.524,0-1.008,0.003-1.451,0.007
		c-0.442,0.004-0.851,0.012-1.225,0.023c-0.375,0.012-0.725,0.025-1.05,0.043c-0.33,0.016-0.634,0.035-0.921,0.059v-1.134
		c0.293,0.023,0.602,0.04,0.926,0.054c0.323,0.01,0.671,0.023,1.046,0.034c0.374,0.013,0.782,0.021,1.225,0.025
		c0.443,0.003,0.927,0.005,1.451,0.005v-0.838c0.733-0.269,1.287-0.531,1.663-0.787h-2.772c-0.727,0-1.292,0.012-1.698,0.037v-0.898
		c0.231,0.016,0.45,0.029,0.658,0.035c0.207,0.01,0.424,0.019,0.657,0.025c0.231,0.009,0.493,0.012,0.783,0.012
		c0.289,0,0.637,0,1.044,0c0.503,0,0.928-0.002,1.28-0.006c0.349-0.004,0.646-0.008,0.889-0.01c0.243-0.004,0.441-0.012,0.598-0.021
		c0.156-0.006,0.288-0.02,0.4-0.035v1.078c-0.104-0.011-0.22,0-0.347,0.027s-0.283,0.078-0.465,0.149
		c-0.185,0.073-0.407,0.175-0.67,0.306c-0.262,0.131-0.583,0.302-0.957,0.508v0.418c0.948-0.007,1.764-0.019,2.444-0.035
		c0.682-0.015,1.293-0.045,1.835-0.083v1.134c-0.542-0.032-1.154-0.059-1.835-0.084c-0.68-0.022-1.496-0.039-2.444-0.048v1.745
		c0,0.184-0.024,0.336-0.071,0.453c-0.049,0.121-0.146,0.225-0.293,0.312c-0.146,0.086-0.36,0.164-0.639,0.232
		c-0.28,0.069-0.649,0.143-1.112,0.221c-0.039-0.382-0.175-0.789-0.406-1.219c0.311,0.025,0.562,0.037,0.753,0.037
		s0.338-0.019,0.442-0.055c0.103-0.038,0.172-0.083,0.209-0.145c0.037-0.059,0.053-0.138,0.053-0.232V209.059z M149.061,203.658
		c0.55,0,1.03-0.006,1.44-0.018c0.409-0.012,0.766-0.029,1.069-0.054v2.233h-0.991v-1.289h-7.889v1.385h-0.99v-2.329
		c0.326,0.024,0.71,0.042,1.156,0.054c0.447,0.012,0.97,0.018,1.566,0.018h3.668c0.136-0.197,0.276-0.418,0.42-0.662
		c0.142-0.242,0.277-0.484,0.401-0.724c0.122-0.237,0.234-0.462,0.333-0.669s0.168-0.375,0.209-0.502
		c0.167,0.119,0.353,0.232,0.555,0.342c0.204,0.106,0.378,0.188,0.521,0.244c0.095,0.039,0.14,0.078,0.131,0.112
		c-0.007,0.036-0.066,0.083-0.178,0.138c-0.073,0.041-0.221,0.191-0.441,0.455C149.817,202.654,149.49,203.077,149.061,203.658z
		 M143.671,203.394c-0.04-0.109-0.089-0.234-0.149-0.369c-0.061-0.134-0.124-0.271-0.187-0.412
		c-0.064-0.141-0.128-0.271-0.197-0.396c-0.066-0.124-0.128-0.231-0.185-0.328l0.98-0.44c0.119,0.207,0.255,0.455,0.405,0.747
		c0.152,0.29,0.287,0.562,0.408,0.816L143.671,203.394z M146.239,203.083c-0.015-0.119-0.038-0.252-0.065-0.399
		c-0.029-0.146-0.058-0.3-0.088-0.453c-0.033-0.156-0.064-0.306-0.097-0.448c-0.032-0.145-0.064-0.269-0.097-0.37l1.053-0.216
		c0.062,0.208,0.134,0.459,0.209,0.758c0.075,0.3,0.142,0.59,0.197,0.868L146.239,203.083z M155.705,205.476
		c0.334,0.461,0.581,0.887,0.742,1.277c0.159,0.391,0.238,0.781,0.238,1.171c0,0.52-0.139,0.911-0.418,1.183
		c-0.28,0.271-0.706,0.438-1.279,0.502c0-0.206-0.022-0.4-0.066-0.586c-0.043-0.183-0.122-0.365-0.232-0.549
		c0.35,0.031,0.611,0.01,0.783-0.064c0.169-0.076,0.269-0.291,0.292-0.64c0.023-0.383-0.047-0.768-0.215-1.155
		c-0.167-0.384-0.395-0.747-0.679-1.08l0.773-2.963h-1.266v9.224h-0.991c0.008-0.263,0.016-0.509,0.022-0.74
		c0.008-0.23,0.018-0.456,0.024-0.675c0.008-0.221,0.013-0.439,0.013-0.662c0-0.225,0-0.459,0-0.705v-6.167
		c0-0.23-0.001-0.464-0.006-0.7c-0.004-0.235-0.013-0.408-0.03-0.518c0.231,0.014,0.473,0.027,0.725,0.042
		c0.25,0.01,0.584,0.017,0.998,0.017c0.415,0,0.75-0.004,1.004-0.012c0.254-0.009,0.499-0.023,0.729-0.047L155.705,205.476z
		 M158.405,207.363c-0.215,0.01-0.43,0.018-0.645,0.024c-0.216,0.007-0.48,0.026-0.791,0.058v-1.039
		c0.232,0.018,0.44,0.029,0.63,0.044c0.187,0.011,0.387,0.021,0.604,0.028c0.215,0.01,0.465,0.012,0.752,0.012s0.645,0,1.075,0
		c0.431,0,0.783,0,1.058,0c0.275,0,0.515-0.002,0.717-0.012c0.203-0.007,0.391-0.018,0.562-0.028
		c0.173-0.015,0.374-0.026,0.604-0.044v1.039c-0.215-0.021-0.401-0.038-0.555-0.046c-0.155-0.009-0.304-0.017-0.442-0.023
		c-0.141-0.009-0.282-0.013-0.423-0.013c-0.145,0-0.312,0-0.503,0v2.735c0,0.192,0.044,0.317,0.132,0.378
		c0.089,0.061,0.286,0.082,0.597,0.066c0.168-0.01,0.304-0.025,0.413-0.055c0.107-0.028,0.198-0.09,0.275-0.186
		c0.076-0.096,0.139-0.234,0.19-0.418c0.053-0.182,0.109-0.426,0.173-0.73c0.137,0.146,0.292,0.266,0.468,0.367
		c0.174,0.098,0.332,0.167,0.477,0.209c-0.086,0.373-0.183,0.675-0.286,0.902c-0.104,0.226-0.231,0.403-0.382,0.531
		c-0.152,0.125-0.337,0.211-0.556,0.252c-0.219,0.039-0.484,0.058-0.795,0.058c-0.367,0-0.657-0.012-0.873-0.036
		c-0.215-0.021-0.379-0.068-0.491-0.135c-0.11-0.07-0.182-0.162-0.215-0.281c-0.03-0.12-0.046-0.277-0.046-0.467v-3.191h-0.79
		c-0.016,0.637-0.084,1.186-0.208,1.65c-0.123,0.461-0.305,0.859-0.544,1.193c-0.238,0.336-0.536,0.616-0.895,0.842
		c-0.358,0.228-0.777,0.425-1.254,0.593c-0.082-0.145-0.181-0.287-0.306-0.431c-0.123-0.145-0.28-0.286-0.473-0.43
		c0.479-0.143,0.89-0.305,1.232-0.479c0.341-0.176,0.626-0.394,0.848-0.658c0.222-0.262,0.388-0.576,0.496-0.941
		C158.339,208.335,158.398,207.888,158.405,207.363z M159.529,202.404c-0.056-0.208-0.127-0.428-0.21-0.662
		c-0.083-0.237-0.157-0.43-0.222-0.581l1.112-0.214c0.04,0.166,0.104,0.39,0.191,0.668c0.088,0.279,0.183,0.543,0.286,0.789
		c0.416,0,0.749-0.002,1.004-0.006c0.256-0.005,0.469-0.01,0.641-0.02c0.169-0.007,0.315-0.014,0.436-0.017
		c0.119-0.005,0.25-0.015,0.394-0.031v1.972h-0.968v-1.074h-4.302v1.063h-0.968v-1.961c0.143,0.017,0.28,0.026,0.413,0.031
		c0.131,0.003,0.289,0.01,0.472,0.017c0.183,0.01,0.408,0.015,0.675,0.02C158.749,202.402,159.098,202.404,159.529,202.404z
		 M162.158,205.5c-0.12-0.017-0.263-0.03-0.431-0.042c-0.167-0.013-0.351-0.02-0.549-0.026c-0.2-0.002-0.409-0.006-0.627-0.01
		c-0.221-0.002-0.441-0.005-0.665-0.005c-0.454,0-0.885,0.003-1.296,0.011c-0.409,0.009-0.734,0.032-0.973,0.072v-1.018
		c0.247,0.041,0.573,0.064,0.979,0.08c0.406,0.01,0.836,0.017,1.29,0.017c0.223,0,0.444-0.002,0.665-0.007
		c0.218-0.004,0.427-0.008,0.627-0.018c0.198-0.008,0.382-0.018,0.549-0.029c0.168-0.013,0.311-0.025,0.431-0.043V205.5z"/>
	<g>
		<path fill="#FFFFFF" d="M145.275,220.529h-1.432c-0.146,0-0.285-0.014-0.419-0.042s-0.25-0.081-0.353-0.161
			c-0.104-0.078-0.187-0.188-0.247-0.326c-0.064-0.141-0.092-0.32-0.092-0.546v-3.632h0.521v3.632c0,0.116,0.017,0.21,0.049,0.282
			c0.031,0.07,0.074,0.125,0.129,0.166c0.054,0.039,0.118,0.064,0.188,0.077c0.069,0.013,0.144,0.021,0.223,0.021h1.432V220.529z"/>
		<path fill="#FFFFFF" d="M147.492,215.849c0.242,0.009,0.454,0.061,0.633,0.15c0.179,0.093,0.329,0.217,0.449,0.369
			c0.12,0.156,0.209,0.334,0.268,0.533c0.061,0.199,0.093,0.411,0.095,0.637v1.082c0.002,0.27-0.026,0.525-0.08,0.762
			c-0.056,0.24-0.146,0.449-0.273,0.629c-0.125,0.176-0.29,0.313-0.494,0.414c-0.201,0.1-0.451,0.145-0.748,0.135
			c-0.181-0.007-0.345-0.038-0.487-0.093c-0.145-0.055-0.27-0.125-0.378-0.216c-0.109-0.09-0.202-0.197-0.277-0.32
			c-0.077-0.121-0.137-0.252-0.185-0.394c-0.048-0.142-0.083-0.292-0.104-0.448c-0.021-0.156-0.031-0.316-0.03-0.476
			c0-0.083,0-0.163,0-0.242c0-0.081,0.002-0.163,0.006-0.247c0-0.033,0.002-0.07,0.003-0.113c0.001-0.045,0.003-0.089,0.005-0.133
			c0-0.045,0.001-0.09,0.003-0.133c0.003-0.043,0.004-0.079,0.004-0.11c0.001-0.259,0.036-0.499,0.096-0.722
			c0.061-0.221,0.157-0.41,0.286-0.574c0.13-0.16,0.294-0.283,0.492-0.371C146.977,215.878,147.215,215.839,147.492,215.849z
			 M147.476,216.369c-0.183-0.006-0.339,0.021-0.472,0.084c-0.133,0.062-0.242,0.15-0.328,0.265
			c-0.083,0.113-0.147,0.249-0.19,0.405c-0.042,0.158-0.064,0.328-0.069,0.513c0,0.083-0.001,0.166-0.002,0.245
			c-0.002,0.078-0.004,0.159-0.004,0.244c-0.003,0.084-0.005,0.166-0.005,0.247c0,0.079,0,0.159,0,0.242
			c-0.002,0.164,0.016,0.325,0.057,0.481c0.041,0.16,0.101,0.303,0.182,0.433c0.079,0.13,0.182,0.237,0.301,0.327
			c0.119,0.09,0.259,0.148,0.42,0.174c0.18-0.004,0.337-0.043,0.468-0.116c0.133-0.077,0.243-0.177,0.33-0.302
			c0.087-0.128,0.152-0.275,0.195-0.445c0.041-0.168,0.06-0.351,0.058-0.545v-1.082c0-0.159-0.021-0.305-0.06-0.443
			c-0.04-0.139-0.098-0.26-0.174-0.364c-0.078-0.104-0.177-0.189-0.292-0.254C147.771,216.411,147.636,216.376,147.476,216.369z"/>
		<path fill="#FFFFFF" d="M150.026,215.988l0.212-0.039c0.177-0.022,0.356-0.046,0.538-0.067c0.183-0.021,0.363-0.032,0.54-0.032
			c0.191,0,0.373,0.02,0.542,0.054c0.169,0.036,0.317,0.095,0.441,0.183c0.125,0.088,0.225,0.206,0.298,0.357
			c0.073,0.15,0.111,0.343,0.116,0.578c0.002,0.149-0.028,0.287-0.086,0.41c-0.06,0.124-0.14,0.24-0.239,0.347
			c-0.1,0.108-0.214,0.21-0.344,0.31c-0.132,0.096-0.265,0.194-0.402,0.296c-0.145,0.099-0.287,0.2-0.429,0.307
			c-0.144,0.104-0.273,0.222-0.388,0.347c-0.117,0.127-0.212,0.266-0.288,0.417c-0.074,0.149-0.118,0.318-0.127,0.505h2.203v0.535
			h-2.694c-0.007-0.073-0.014-0.135-0.019-0.184c-0.004-0.051-0.009-0.09-0.011-0.123c-0.001-0.03-0.003-0.057-0.003-0.078
			s0-0.039,0-0.059c0-0.264,0.044-0.5,0.131-0.706c0.089-0.204,0.201-0.392,0.341-0.558c0.139-0.166,0.295-0.317,0.469-0.451
			c0.173-0.135,0.345-0.262,0.514-0.384c0.108-0.075,0.212-0.15,0.316-0.226c0.102-0.074,0.191-0.15,0.271-0.229
			c0.079-0.076,0.142-0.154,0.191-0.232c0.049-0.08,0.072-0.162,0.07-0.244c-0.003-0.131-0.028-0.236-0.073-0.318
			c-0.047-0.084-0.108-0.149-0.187-0.197c-0.079-0.047-0.17-0.08-0.275-0.1c-0.107-0.017-0.218-0.026-0.339-0.026
			c-0.085,0-0.176,0.003-0.272,0.01c-0.099,0.009-0.199,0.017-0.304,0.03c-0.104,0.013-0.21,0.025-0.317,0.039
			c-0.106,0.017-0.212,0.029-0.316,0.045L150.026,215.988z"/>
		<path fill="#FFFFFF" d="M156.479,216.519l-0.186-0.029l-0.132-0.018c-0.129-0.02-0.261-0.043-0.396-0.062
			c-0.134-0.021-0.262-0.031-0.387-0.031c-0.129,0-0.255,0.015-0.375,0.042s-0.23,0.077-0.329,0.148
			c-0.1,0.072-0.182,0.171-0.246,0.297c-0.065,0.128-0.108,0.287-0.125,0.484c-0.004,0.021-0.006,0.062-0.006,0.123
			c0,0.064,0,0.129,0,0.201c0.19-0.043,0.371-0.074,0.536-0.095c0.165-0.021,0.321-0.03,0.466-0.03c0.252,0,0.469,0.031,0.65,0.096
			c0.18,0.064,0.329,0.152,0.447,0.26c0.119,0.107,0.208,0.236,0.268,0.385c0.061,0.146,0.099,0.3,0.113,0.461v0.266
			c0,0.16-0.012,0.302-0.034,0.425c-0.026,0.122-0.056,0.23-0.097,0.328c-0.04,0.095-0.087,0.179-0.143,0.251
			c-0.057,0.074-0.115,0.143-0.176,0.203c-0.061,0.057-0.134,0.107-0.215,0.151c-0.079,0.045-0.165,0.081-0.258,0.108
			c-0.09,0.029-0.185,0.053-0.282,0.066c-0.098,0.016-0.195,0.024-0.292,0.024c-0.18,0-0.354-0.021-0.521-0.062
			c-0.167-0.042-0.307-0.106-0.416-0.189c-0.1-0.075-0.184-0.166-0.253-0.275c-0.069-0.106-0.128-0.23-0.173-0.364
			c-0.047-0.137-0.083-0.281-0.105-0.436c-0.025-0.154-0.038-0.312-0.04-0.475v-1.488c0.035-0.279,0.101-0.511,0.2-0.693
			c0.103-0.186,0.225-0.33,0.37-0.439c0.145-0.109,0.306-0.184,0.485-0.229c0.178-0.047,0.363-0.068,0.553-0.068
			c0.136,0,0.27,0.012,0.406,0.028c0.134,0.02,0.266,0.038,0.396,0.06c0.034,0.004,0.067,0.007,0.1,0.012
			c0.031,0.005,0.062,0.007,0.092,0.007l0.18,0.033L156.479,216.519z M155.299,218.08c-0.132,0-0.282,0.012-0.445,0.033
			c-0.163,0.025-0.348,0.066-0.557,0.126c0,0.06,0,0.116,0,0.173c0,0.055,0,0.105,0,0.15c0,0.044,0,0.082,0,0.113
			c0.002,0.031,0.002,0.053,0.006,0.066c0,0.128,0.008,0.252,0.023,0.371c0.012,0.118,0.032,0.229,0.06,0.332
			c0.028,0.102,0.063,0.189,0.107,0.268c0.045,0.078,0.098,0.141,0.159,0.186h-0.006c0.072,0.047,0.164,0.084,0.273,0.109
			c0.111,0.025,0.23,0.037,0.36,0.037c0.071,0,0.141-0.004,0.208-0.01c0.068-0.008,0.133-0.02,0.194-0.034
			c0.058-0.015,0.113-0.034,0.16-0.056c0.049-0.023,0.088-0.05,0.12-0.078c0.044-0.047,0.084-0.096,0.121-0.145
			c0.035-0.05,0.065-0.107,0.093-0.172c0.023-0.063,0.045-0.139,0.057-0.225c0.014-0.088,0.021-0.189,0.021-0.309
			c0-0.039,0-0.076,0-0.111c0-0.036-0.002-0.078-0.006-0.126c-0.006-0.098-0.027-0.189-0.065-0.275
			c-0.034-0.086-0.09-0.159-0.165-0.221c-0.075-0.063-0.171-0.112-0.288-0.149C155.611,218.097,155.468,218.08,155.299,218.08z"/>
		<path fill="#FFFFFF" d="M158.062,219.898c0.126,0.04,0.272,0.073,0.436,0.102c0.164,0.025,0.329,0.039,0.496,0.039
			c0.08,0,0.159-0.003,0.238-0.012c0.079-0.008,0.154-0.021,0.23-0.039c0.072-0.018,0.142-0.039,0.207-0.062
			c0.065-0.027,0.121-0.059,0.17-0.094c0.1-0.088,0.175-0.195,0.227-0.314c0.051-0.121,0.077-0.246,0.077-0.373
			c0-0.084-0.011-0.168-0.035-0.248c-0.022-0.078-0.056-0.152-0.1-0.218c-0.042-0.064-0.096-0.12-0.159-0.164
			c-0.063-0.045-0.134-0.073-0.214-0.085c-0.159-0.018-0.32-0.027-0.485-0.033c-0.164-0.003-0.325-0.008-0.48-0.008h-0.585v-0.521
			h0.863c0.111-0.008,0.222-0.015,0.328-0.023c0.108-0.01,0.216-0.024,0.327-0.047c0.075-0.019,0.142-0.051,0.204-0.099
			c0.061-0.046,0.113-0.101,0.156-0.164c0.043-0.064,0.077-0.136,0.101-0.209c0.023-0.076,0.034-0.154,0.034-0.231
			c0-0.098-0.022-0.197-0.066-0.297c-0.046-0.099-0.112-0.188-0.197-0.267c-0.042-0.026-0.089-0.048-0.144-0.067
			s-0.113-0.035-0.174-0.045c-0.061-0.014-0.126-0.021-0.195-0.028c-0.066-0.007-0.132-0.01-0.195-0.01
			c-0.198,0-0.393,0.012-0.585,0.038c-0.193,0.025-0.364,0.053-0.521,0.079l-0.086-0.522c0.006,0,0.021-0.002,0.043-0.005
			c0.023-0.001,0.04-0.001,0.05-0.001c0.161-0.023,0.335-0.047,0.525-0.074c0.192-0.025,0.383-0.039,0.575-0.039
			c0.194,0,0.38,0.02,0.559,0.057c0.178,0.037,0.335,0.107,0.47,0.209c0.161,0.125,0.28,0.275,0.36,0.447
			c0.077,0.175,0.118,0.349,0.118,0.525c0,0.094-0.013,0.189-0.034,0.281c-0.022,0.095-0.054,0.184-0.095,0.27
			c-0.039,0.087-0.088,0.168-0.147,0.243c-0.058,0.076-0.121,0.144-0.193,0.204c0.084,0.057,0.159,0.123,0.221,0.201
			c0.063,0.077,0.115,0.16,0.156,0.252c0.043,0.092,0.074,0.188,0.095,0.29c0.019,0.102,0.031,0.204,0.031,0.31
			c0,0.099-0.012,0.2-0.031,0.303c-0.021,0.1-0.052,0.199-0.095,0.293c-0.042,0.094-0.093,0.186-0.155,0.271
			c-0.06,0.084-0.132,0.16-0.215,0.23c-0.074,0.055-0.156,0.104-0.248,0.146c-0.093,0.042-0.19,0.073-0.294,0.102
			c-0.101,0.026-0.207,0.048-0.314,0.06c-0.108,0.014-0.214,0.02-0.322,0.02c-0.098,0-0.199-0.004-0.298-0.013
			c-0.101-0.011-0.199-0.021-0.293-0.038c-0.094-0.014-0.184-0.033-0.27-0.054c-0.086-0.021-0.166-0.046-0.237-0.074
			L158.062,219.898z"/>
		<path fill="#FFFFFF" d="M161.966,219.931c0.127,0.04,0.275,0.076,0.447,0.104c0.169,0.027,0.344,0.041,0.519,0.041
			c0.083,0,0.165-0.005,0.249-0.014c0.083-0.01,0.162-0.021,0.24-0.038c0.077-0.017,0.149-0.038,0.216-0.063
			c0.068-0.027,0.127-0.055,0.177-0.088c0.043-0.045,0.083-0.096,0.12-0.152c0.035-0.059,0.067-0.121,0.093-0.186
			c0.025-0.064,0.045-0.131,0.061-0.197c0.016-0.068,0.023-0.135,0.023-0.199c0-0.062-0.005-0.123-0.017-0.188
			c-0.011-0.064-0.031-0.127-0.056-0.189c-0.04-0.121-0.095-0.219-0.171-0.292c-0.075-0.074-0.164-0.131-0.265-0.171
			c-0.099-0.041-0.209-0.067-0.327-0.08c-0.119-0.012-0.237-0.021-0.354-0.021c-0.065,0-0.127,0.001-0.188,0.003
			c-0.059,0.002-0.123,0.006-0.187,0.01h-0.03c-0.042,0.002-0.093,0.004-0.158,0.004c-0.063,0.002-0.125,0.004-0.189,0.004
			c-0.061,0.001-0.119,0.002-0.173,0.002c-0.053,0.002-0.09,0.002-0.111,0.002l0.24-2.348h2.291v0.523h-1.807
			c-0.013,0.078-0.021,0.16-0.027,0.248c-0.009,0.09-0.016,0.171-0.027,0.248c-0.017,0.127-0.032,0.254-0.046,0.381
			c-0.014,0.128-0.03,0.269-0.046,0.418c0.006,0,0.011-0.002,0.016-0.003c0.003-0.001,0.009-0.003,0.014-0.003
			c0.064-0.004,0.135-0.007,0.213-0.009c0.077-0.003,0.148-0.003,0.213-0.003c0.165,0,0.332,0.012,0.497,0.036
			c0.166,0.026,0.324,0.071,0.466,0.14c0.146,0.066,0.276,0.16,0.391,0.279c0.117,0.118,0.208,0.274,0.273,0.464
			c0.026,0.086,0.047,0.173,0.063,0.267c0.015,0.092,0.023,0.185,0.023,0.277c0,0.104-0.012,0.211-0.033,0.315
			c-0.022,0.107-0.054,0.21-0.095,0.31c-0.043,0.099-0.094,0.194-0.155,0.281c-0.062,0.089-0.134,0.168-0.215,0.238
			c-0.073,0.057-0.154,0.106-0.248,0.146c-0.092,0.041-0.19,0.076-0.295,0.101c-0.105,0.025-0.213,0.045-0.324,0.057
			c-0.113,0.013-0.225,0.019-0.338,0.019c-0.101,0-0.2-0.004-0.304-0.014c-0.103-0.01-0.202-0.021-0.3-0.038
			c-0.096-0.017-0.189-0.036-0.281-0.06c-0.089-0.021-0.169-0.048-0.242-0.073L161.966,219.931z"/>
	</g>
</g>
</svg>
